<svg width="59" height="59" viewBox="0 0 59 59" fill="none" xmlns="http://www.w3.org/2000/svg">
<circle cx="29.4512" cy="29.4512" r="29.4512" transform="matrix(-1 0 0 1 58.9025 0)" fill="#FFBE87"/>
<path d="M21.0427 29.7278C21.0735 29.3737 21.2159 29.0384 21.4494 28.7704L34.883 13.2423C35.0251 13.0674 35.201 12.923 35.4001 12.8175C35.5992 12.712 35.8175 12.6477 36.042 12.6283C36.2665 12.6089 36.4926 12.6349 36.7069 12.7047C36.9211 12.7745 37.1191 12.8867 37.2891 13.0346C37.459 13.1825 37.5975 13.3631 37.6962 13.5656C37.7949 13.7681 37.8518 13.9884 37.8635 14.2134C37.8753 14.4384 37.8416 14.6634 37.7646 14.8751C37.6875 15.0868 37.5686 15.2808 37.415 15.4456L24.939 29.8721L37.415 44.2985C37.5686 44.4633 37.6875 44.6574 37.7646 44.8691C37.8416 45.0807 37.8753 45.3058 37.8635 45.5307C37.8518 45.7557 37.7949 45.976 37.6962 46.1785C37.5975 46.381 37.459 46.5616 37.2891 46.7095C37.1191 46.8574 36.9211 46.9696 36.7069 47.0394C36.4926 47.1092 36.2665 47.1352 36.042 47.1158C35.8175 47.0965 35.5992 47.0321 35.4001 46.9266C35.201 46.8212 35.0251 46.6767 34.883 46.5019L21.4494 30.9737C21.3015 30.8039 21.1893 30.6061 21.1194 30.3921C21.0496 30.178 21.0235 29.9521 21.0427 29.7278Z" fill="white"/>
</svg>
