<svg width="59" height="59" viewBox="0 0 59 59" fill="none" xmlns="http://www.w3.org/2000/svg">
<circle cx="29.5488" cy="29.4512" r="29.4512" fill="#FFBE87"/>
<path d="M37.9573 29.7278C37.9265 29.3737 37.7841 29.0384 37.5506 28.7704L24.117 13.2423C23.9749 13.0674 23.799 12.923 23.5999 12.8175C23.4008 12.712 23.1825 12.6477 22.958 12.6283C22.7335 12.6089 22.5074 12.6349 22.2931 12.7047C22.0789 12.7745 21.8809 12.8867 21.7109 13.0346C21.541 13.1825 21.4025 13.3631 21.3038 13.5656C21.2051 13.7681 21.1482 13.9884 21.1365 14.2134C21.1247 14.4384 21.1584 14.6634 21.2354 14.8751C21.3125 15.0868 21.4314 15.2808 21.585 15.4456L34.061 29.8721L21.585 44.2985C21.4314 44.4633 21.3125 44.6574 21.2354 44.8691C21.1584 45.0807 21.1247 45.3058 21.1365 45.5307C21.1482 45.7557 21.2051 45.976 21.3038 46.1785C21.4025 46.381 21.541 46.5616 21.7109 46.7095C21.8809 46.8574 22.0789 46.9696 22.2931 47.0394C22.5074 47.1092 22.7335 47.1352 22.958 47.1158C23.1825 47.0965 23.4008 47.0321 23.5999 46.9266C23.799 46.8212 23.9749 46.6767 24.117 46.5019L37.5506 30.9737C37.6985 30.8039 37.8107 30.6061 37.8806 30.3921C37.9504 30.178 37.9765 29.9521 37.9573 29.7278Z" fill="white"/>
</svg>
