<svg width="159" height="68" viewBox="0 0 159 68" fill="none" xmlns="http://www.w3.org/2000/svg">
<path d="M26.625 1.02432C26.625 1.1765 27.0815 1.23737 27.6294 1.1765C28.4816 1.05475 28.5121 1.05475 27.8425 1.29824C26.9902 1.60261 27.6294 1.72435 28.6947 1.45043C29.8208 1.14606 29.4556 0.719952 27.9946 0.719952C27.2337 0.719952 26.625 0.841698 26.625 1.02432Z" fill="#E37619"/>
<path d="M26.7468 2.12017C26.8685 2.42454 26.6555 2.54629 25.8945 2.54629C24.738 2.54629 24.464 2.7289 24.7075 3.33763C24.7988 3.58112 25.3163 3.76374 25.9859 3.79418C27.0816 3.79418 27.0816 3.79418 26.412 4.28116C26.0163 4.52465 25.7119 4.85946 25.7119 5.01164C25.7119 5.46818 26.3815 5.316 26.8076 4.73771C27.1729 4.28116 27.2337 4.46378 27.1729 6.10735C27.1729 7.17262 27.0207 8.02485 26.8989 8.02485C26.7468 8.02485 26.625 7.84223 26.625 7.59874C26.625 7.38568 26.412 7.02044 26.138 6.77695C25.7424 6.47259 25.6206 6.47259 25.3771 6.83782C25.2249 7.08132 25.1641 7.44655 25.2554 7.62917C25.3163 7.84223 25.2554 8.02485 25.1032 8.02485C24.9206 8.02485 24.7988 7.75092 24.7988 7.44655C24.7988 7.11175 24.6467 6.74652 24.464 6.62477C24.0379 6.35084 23.5509 7.11175 23.7031 7.78135C23.8857 8.60314 23.4292 8.42052 23.0335 7.53786C22.6074 6.62477 21.9378 6.86826 22.1509 7.9031C22.3335 8.9075 21.9378 8.81619 21.5421 7.78135L21.2378 6.95957L20.903 7.72048C20.7204 8.14659 20.5682 8.29877 20.5682 8.08572C20.5377 7.53786 20.0203 7.62917 19.8073 8.2379C19.5638 8.81619 20.2029 11.9511 20.6595 12.5599C20.8725 12.8034 20.9943 14.5687 21.0247 16.7601C21.0552 21.0212 20.9334 20.8386 23.5509 21.5995C25.7728 22.2691 31.7383 22.0865 33.3515 21.2951L34.4472 20.7777L34.4168 17.0645C34.4168 14.3556 34.5081 13.1382 34.8429 12.5903C35.0864 12.1642 35.2994 11.6772 35.3603 11.525C35.9081 9.33361 36.0299 8.69445 35.8777 8.2379C35.6951 7.62917 35.1472 7.53786 35.1168 8.08572C35.1168 8.29877 34.9646 8.14659 34.8124 7.75092C34.5385 7.05088 34.5081 7.02044 34.082 7.59874C33.6558 8.14659 33.6558 8.14659 33.6254 7.47699C33.6254 6.5639 33.1384 6.62477 32.5906 7.62917L32.134 8.48139L32.1036 7.65961C32.1036 6.65521 31.7079 6.35084 31.1905 6.95957C30.8861 7.35524 30.7644 7.32481 30.3078 6.77695C29.7904 6.10735 29.7904 6.10735 29.273 7.14219C28.9991 7.72048 28.7556 8.11616 28.7251 8.02485C28.5425 7.20306 28.4512 4.37247 28.6338 4.37247C28.7556 4.37247 29.0295 4.61596 29.2426 4.88989C29.4556 5.19426 29.7295 5.34644 29.8513 5.22469C29.973 5.07251 29.8208 4.70727 29.5165 4.37247C28.9686 3.76374 28.9686 3.76374 30.0643 3.76374C30.9774 3.76374 31.1905 3.642 31.1905 3.15501C31.1905 2.66803 30.9774 2.54629 30.0948 2.54629C29.4556 2.54629 29.0904 2.42454 29.2121 2.24192C29.3034 2.0593 29.1208 1.93756 28.786 1.93756C28.4208 1.93756 28.1468 2.15061 28.1468 2.3941C28.1468 2.7289 28.5121 2.85065 29.5165 2.85065C30.3078 2.85065 30.8861 3.00283 30.8861 3.18545C30.8861 3.39851 30.3383 3.48981 29.4556 3.39851L27.9947 3.3072L28.086 4.88989C28.1773 5.92473 28.086 6.50302 27.8729 6.50302C27.6903 6.50302 27.5686 6.41171 27.5686 6.25953C27.599 6.13778 27.599 5.46818 27.5686 4.73771C27.5381 3.52025 27.4772 3.45938 26.625 3.45938C26.138 3.45938 25.7119 3.3072 25.7119 3.15501C25.7119 2.97239 26.1076 2.85065 26.5946 2.85065C27.6294 2.85065 28.086 2.0593 27.2033 1.84625C26.7468 1.7245 26.625 1.78537 26.7468 2.12017ZM26.1989 7.5683C26.138 7.78135 26.2293 8.11616 26.412 8.29877C26.8381 8.72488 27.5381 8.17703 27.5381 7.35524C27.5381 7.02044 27.6903 6.80739 27.9338 6.8987C28.1164 6.95957 28.2686 7.2335 28.2077 7.47699C28.1164 8.14659 28.9382 8.78576 29.2426 8.26834C29.3947 8.05528 29.5165 7.69005 29.5165 7.50743C29.5165 6.80739 30.1252 7.11175 30.1252 7.81179C30.1252 8.69445 31.0079 8.69445 31.1296 7.78135C31.1905 7.41612 31.3731 7.11175 31.5557 7.11175C31.7383 7.11175 31.7992 7.38568 31.7079 7.72048C31.5253 8.48139 32.1949 9.12056 32.621 8.5727C32.8036 8.35965 32.9862 7.96397 33.0775 7.72048C33.1689 7.41612 33.2602 7.47699 33.3819 7.96397C33.5037 8.39008 33.4428 8.5727 33.2602 8.45096C33.0775 8.32921 32.9862 8.42052 33.0775 8.63357C33.2906 9.33361 33.8385 9.30318 34.0515 8.5727C34.2037 7.99441 34.295 7.96397 34.5385 8.32921C34.9342 8.93794 34.9037 9.51623 34.5081 8.93794C34.2341 8.54226 34.2037 8.54226 34.3254 8.93794C34.3863 9.18143 34.6602 9.36405 34.9037 9.36405C35.2081 9.33361 35.3298 9.5771 35.269 10.0641C35.1777 10.8554 34.8429 11.4337 34.8429 10.7946C34.8429 10.5815 34.7211 10.4902 34.5689 10.6119C34.3863 10.7033 34.295 11.312 34.3254 11.9511C34.3254 12.6207 34.1733 13.3512 33.9602 13.6252C33.2906 14.4469 33.0471 14.173 33.5341 13.1686C33.7776 12.6816 33.8993 12.1642 33.808 12.0729C33.7167 11.9511 33.6254 12.0425 33.6254 12.2555C33.6254 12.499 33.4123 12.5903 33.1689 12.4686C32.8645 12.3468 32.7123 12.499 32.7123 12.8947C32.7123 13.2904 32.5601 13.4425 32.2558 13.3208C32.0123 13.199 31.7992 13.2904 31.7992 13.473C31.7992 13.6556 31.9514 13.8078 32.134 13.8078C32.621 13.8078 33.3819 14.66 33.1993 14.9948C33.108 15.147 33.2297 15.3296 33.4732 15.4513C34.1428 15.6948 34.0515 17.2471 33.3515 17.6732C32.8949 17.9471 32.6514 17.9471 32.2253 17.5819C31.6775 17.1558 31.6775 17.1558 32.3166 17.4297C32.6819 17.6123 33.0471 17.6428 33.1384 17.4906C33.321 17.2167 31.4644 16.6688 29.7295 16.4557C28.9078 16.3644 28.786 16.4253 28.9382 16.9123C29.0295 17.2167 28.9686 17.4601 28.8164 17.4601C28.4512 17.4601 27.812 16.6992 27.9947 16.4862C28.086 16.3949 27.6599 16.3949 27.0207 16.4557C26.3815 16.5166 25.4684 16.6079 24.951 16.6688C24.464 16.6992 23.7336 16.8819 23.3683 17.0949C22.9726 17.308 22.6683 17.3688 22.6683 17.2471C22.6683 17.1253 22.4552 17.2775 22.2117 17.5819C21.9682 17.9167 21.7552 18.0384 21.7552 17.8254C21.7552 17.0036 23.1248 16.0905 24.4032 16.0905C25.4684 16.0905 25.6206 16.0296 25.3163 15.634C25.1336 15.3905 24.9206 15.1165 24.8901 15.0557C24.8293 14.9644 24.5858 15.1774 24.3423 15.5122C24.0988 15.847 23.9162 15.9383 23.8857 15.6948C23.8857 15.3296 22.7292 15.36 22.0596 15.7861C21.9074 15.8774 21.7552 15.847 21.7552 15.6644C21.7552 15.5122 21.9378 15.2992 22.1509 15.2383C22.3639 15.147 22.303 15.0557 21.9682 15.0557C21.5726 15.0252 21.4813 14.8426 21.6334 14.2948C21.7248 13.8991 21.6639 13.473 21.4813 13.3817C21.3291 13.2599 21.2378 12.986 21.3595 12.7425C21.4508 12.499 21.3595 12.2859 21.1769 12.2859C20.9943 12.2859 20.8421 12.1338 20.8421 11.9511C20.8421 11.799 20.9943 11.7381 21.1465 11.8294C21.6639 12.1642 21.4813 10.8554 20.9334 10.4293C20.4769 10.0641 20.4464 10.0641 20.629 10.5511C20.7508 10.8859 20.7204 11.0381 20.5377 10.9163C20.0812 10.6424 20.1725 9.85103 20.6899 9.66841C21.2986 9.42492 21.2682 8.93794 20.629 8.9075C20.1116 8.87707 20.1116 8.84663 20.629 8.72488C20.903 8.66401 21.1465 8.35965 21.1769 8.08572C21.1769 7.78135 21.3291 7.93354 21.5117 8.42052C21.7552 9.05968 21.9074 9.18143 22.2117 8.93794C22.4248 8.75532 22.5465 8.29877 22.4248 7.93354C22.3335 7.53786 22.3944 7.38568 22.5465 7.50743C22.6987 7.65961 22.8205 7.87266 22.8205 7.96397C22.8205 8.08572 22.9422 8.35965 23.0944 8.5727C23.4596 9.15099 24.1597 8.45096 23.977 7.72048C23.8857 7.38568 23.9466 7.11175 24.1292 7.11175C24.3119 7.11175 24.4945 7.41612 24.5553 7.78135C24.6467 8.54226 25.5293 8.75532 25.5902 8.02485C25.6206 7.78135 25.6511 7.38568 25.6815 7.17263C25.6815 6.95957 25.8641 6.86826 26.0467 6.95957C26.2293 7.08132 26.2902 7.35524 26.1989 7.5683ZM27.2946 17.1253C27.112 17.2471 27.0511 17.4601 27.1729 17.6428C27.7512 18.495 29.5165 18.3732 29.5165 17.4601C29.5165 17.2167 29.7904 16.9732 30.1252 16.9123C30.6122 16.821 30.6731 16.8819 30.3687 17.1862C29.76 17.8254 29.9122 18.1602 30.7035 17.9471C31.0992 17.8558 31.4949 17.8558 31.5557 18.008C31.6166 18.1297 32.1949 18.5254 32.8645 18.8602C35.3298 20.1994 34.0211 21.2038 29.3947 21.5995C26.8076 21.8126 23.2466 21.356 22.1509 20.6255C21.2986 20.0777 21.2682 18.2819 22.1509 18.5559C22.4248 18.6472 22.6683 18.5559 22.6683 18.3732C22.6683 18.1602 22.9118 18.0993 23.3074 18.2211C24.251 18.5254 25.438 18.1297 25.3467 17.5515C25.2858 17.2775 25.4076 17.0036 25.6206 16.9427C25.8641 16.8514 25.9554 17.034 25.8641 17.4297C25.7728 17.8558 25.8945 18.008 26.3511 17.9776C27.0207 17.9471 27.0816 17.7341 26.5641 17.1862C26.2598 16.8514 26.2598 16.7905 26.5641 16.9732C26.7468 17.0949 26.9294 17.034 26.9294 16.8514C26.9294 16.6688 27.0816 16.6079 27.2642 16.7297C27.5077 16.8514 27.5077 17.0036 27.2946 17.1253Z" fill="#E37619"/>
<path d="M25.4075 9.51619C25.2249 9.91187 25.1945 10.3684 25.3771 10.8554C25.8336 12.012 26.2293 12.0729 26.5945 11.0076C26.9598 10.0032 26.7772 9.42489 26.3206 10.1554C26.1684 10.3989 25.9554 10.4902 25.8336 10.3684C25.7119 10.2467 25.7728 9.97274 25.9554 9.79012C26.3815 9.36401 26.4424 8.9379 26.0163 8.9379C25.8641 8.9379 25.5901 9.21183 25.4075 9.51619Z" fill="#E37619"/>
<path d="M22.5465 10.0336C22.3335 10.8554 23.1248 12.5598 23.5205 12.1033C23.6422 12.012 23.5509 11.8294 23.3683 11.7685C23.1553 11.6772 22.9726 11.4946 22.9726 11.3424C22.9726 11.1598 23.0944 11.0989 23.2466 11.1902C23.7944 11.525 23.8249 10.1858 23.277 9.69881C22.79 9.24226 22.7291 9.2727 22.5465 10.0336Z" fill="#E37619"/>
<path d="M32.2862 9.72922C31.921 10.6423 32.0731 11.3119 32.6514 11.251C32.9254 11.1902 33.1689 11.0076 33.1384 10.8249C33.108 10.6119 33.0775 10.1858 33.0775 9.85097C33.0167 9.12049 32.5601 9.05962 32.2862 9.72922Z" fill="#E37619"/>
<path d="M28.9382 10.5206C29.273 11.738 29.5773 12.1033 29.7904 11.7076C29.9121 11.525 29.8513 11.3728 29.6991 11.3728C29.5165 11.3728 29.3643 11.2206 29.3643 11.038C29.3643 10.8554 29.5469 10.7641 29.7904 10.8554C30.0339 10.9467 30.3078 10.825 30.3991 10.551C30.673 9.88142 30.3078 9.60749 29.9426 10.1553C29.6991 10.4901 29.5773 10.5206 29.4556 10.2162C29.1817 9.54662 28.6947 9.82055 28.9382 10.5206Z" fill="#E37619"/>
<path d="M24.1901 10.6728C24.1901 10.8859 24.3423 11.0685 24.4945 11.0685C24.6771 11.0685 24.7988 11.2815 24.7988 11.525C24.7988 12.0729 24.3118 12.1337 24.0988 11.5859C24.0075 11.4033 23.9162 11.6772 23.9162 12.2251C23.8857 13.1077 23.977 13.2295 24.5858 13.1381C25.4684 13.0164 25.5902 11.9816 24.8293 11.038C24.4945 10.6424 24.2205 10.4902 24.1901 10.6728Z" fill="#E37619"/>
<path d="M27.1729 11.1901C26.7163 12.2249 27.0511 12.9554 27.9033 12.8337C28.6643 12.7424 28.8469 11.951 28.3903 10.977C28.0251 10.2466 27.599 10.3379 27.1729 11.1901Z" fill="#E37619"/>
<path d="M30.5817 11.251C30.3382 11.6771 30.186 12.4076 30.2165 12.8337C30.2469 13.5337 30.2165 13.5642 29.9426 13.1076C29.7904 12.8337 29.486 12.5902 29.3034 12.5902C29.1208 12.5902 29.273 12.9554 29.6991 13.3816L30.4295 14.1729L29.6686 14.0512C29.2425 13.9903 28.9382 13.7772 28.999 13.5642C29.0295 13.3816 28.8468 13.1989 28.5729 13.1989C28.2685 13.1989 28.1468 13.3816 28.2685 13.6555C28.3903 13.9903 28.2381 14.112 27.6903 14.112C27.2641 14.112 26.9293 13.9598 26.9293 13.7772C26.9293 13.625 27.0815 13.5642 27.2337 13.6555C27.4163 13.7468 27.5381 13.6859 27.5381 13.5337C27.5381 13.3511 27.0815 13.2294 26.5641 13.2294C26.0163 13.2598 25.8032 13.3207 26.1076 13.412C26.3815 13.4729 26.625 13.6859 26.625 13.8381C26.625 14.2033 25.8032 14.2033 25.5597 13.8077C25.4684 13.625 25.0423 13.5033 24.6162 13.5033C24.1901 13.5033 23.9161 13.625 24.0074 13.7772C24.0988 13.9294 24.4944 13.9903 24.8597 13.8685C25.3162 13.7468 25.438 13.8077 25.2553 14.0816C25.1336 14.2946 24.7988 14.4164 24.4944 14.3251C24.2205 14.2642 23.6422 14.386 23.2465 14.599C22.5465 14.9947 22.5769 14.9947 23.5813 14.8121C24.1596 14.6903 26.0467 14.5686 27.7511 14.5686C29.4251 14.5686 30.7339 14.5077 30.6122 14.4164C30.2165 14.112 30.4295 13.412 31.0078 13.1989C31.8296 12.925 31.9209 11.7075 31.0991 11.9206C30.673 12.0423 30.5513 11.951 30.6426 11.6467C30.7339 11.4032 30.9774 11.251 31.16 11.2814C31.3426 11.3423 31.4948 11.1597 31.4948 10.9162C31.4948 10.2162 31.0383 10.3683 30.5817 11.251Z" fill="#E37619"/>
<path d="M22.1813 11.9207C22.3943 12.1947 22.3335 12.4077 22.0595 12.5903C21.8465 12.7121 21.7552 13.0469 21.8769 13.3513C22.0291 13.7774 22.1508 13.8078 22.5161 13.5034C23.0944 13.0165 23.0944 12.773 22.4552 12.0729C22.1508 11.7686 22.0291 11.6772 22.1813 11.9207Z" fill="#E37619"/>
<path d="M25.8641 14.9947C25.6206 15.4208 25.9554 15.9382 26.4728 15.9382C26.9293 15.9382 26.8989 14.9643 26.4119 14.8121C26.2293 14.7512 25.9858 14.8425 25.8641 14.9947Z" fill="#E37619"/>
<path d="M27.325 15.3295C27.2946 15.7556 27.4468 15.9382 27.8729 15.9382C28.5425 15.9382 28.6034 15.6034 28.086 15.086C27.5685 14.5686 27.3555 14.6295 27.325 15.3295Z" fill="#E37619"/>
<path d="M30.2773 15.3904C30.2773 15.6035 31.0383 15.9991 31.9513 16.2731C33.5036 16.7296 33.6254 16.7296 33.6254 16.2731C33.6254 15.7861 33.2297 15.6643 31.7383 15.5426C31.4339 15.5122 31.1904 15.3904 31.1904 15.2687C31.1904 15.1469 30.9774 15.0252 30.7339 15.0252C30.4904 15.0252 30.2773 15.2078 30.2773 15.3904Z" fill="#E37619"/>
<path d="M26.4728 18.7079C25.8032 18.8297 24.738 19.0427 24.1292 19.134C23.4901 19.2253 22.9727 19.4384 22.9727 19.5906C22.9727 19.7732 23.277 19.7732 23.764 19.5906C24.1901 19.408 25.1945 19.2862 26.0163 19.2862C27.0207 19.2862 27.5381 19.134 27.6599 18.8297C27.7512 18.5862 27.7816 18.4036 27.7512 18.4036C27.7207 18.434 27.1424 18.5557 26.4728 18.7079Z" fill="#E37619"/>
<path d="M44.8565 12.712C40.8693 14.7208 38.7996 16.06 36.8517 17.8253L35.3603 19.1645L35.2994 21.4473C35.269 23.1517 35.0864 24.0344 34.5385 25.0692C33.108 27.8693 28.8469 32.6479 28.1773 32.2522C27.9947 32.1305 27.8425 31.7043 27.8425 31.2782C27.8425 30.8826 27.5686 30.3956 27.2338 30.1825C26.899 29.9695 26.625 29.6042 26.625 29.3912C26.625 29.1781 26.412 28.9346 26.1685 28.8433C25.925 28.7216 25.7119 28.4172 25.7119 28.1128C25.7119 27.8085 25.4989 27.4128 25.2554 27.1997C25.0119 26.9867 24.7988 26.5606 24.7988 26.2258C24.7988 25.9214 24.5858 25.5866 24.3423 25.4953C24.0988 25.3736 23.8857 25.1301 23.8857 24.917C23.8857 24.7344 23.5814 24.217 23.2161 23.7909C22.8205 23.3648 22.1204 22.5125 21.603 21.9038C21.116 21.3255 20.5682 20.8081 20.416 20.8081C20.2942 20.8081 19.8986 20.4733 19.5638 20.0472C19.229 19.6211 18.8029 19.2863 18.5594 19.2863C18.3463 19.2863 18.1028 19.1036 18.0115 18.8906C17.9202 18.708 17.3419 18.2819 16.7027 17.9471C16.0331 17.6427 15.1505 17.1862 14.6939 16.9731C14.2678 16.7296 13.6287 16.547 13.2939 16.547C12.9286 16.547 12.5938 16.4252 12.5025 16.2731C12.4112 16.1209 12.046 16.06 11.7112 16.1513C11.3764 16.2426 10.9198 16.1818 10.7068 16.0296C10.5241 15.8774 8.69796 15.7252 6.65872 15.6948L2.97591 15.6035L3.09766 17.2166C3.18897 18.0992 3.37158 19.195 3.5542 19.6515C3.70638 20.1081 3.76726 20.595 3.67595 20.7472C3.52377 21.0211 3.91944 22.5734 4.43686 23.6082C4.58904 23.9126 4.71079 24.3996 4.71079 24.7344C4.71079 25.0388 4.92384 25.4649 5.16733 25.6779C5.41083 25.891 5.62388 26.2867 5.62388 26.591C5.62388 26.8954 5.83694 27.2911 6.08043 27.5041C6.32392 27.7172 6.53697 28.0824 6.53697 28.2955C6.53697 28.5389 6.8109 28.8737 7.1457 29.0868C7.4805 29.2999 7.75443 29.6347 7.75443 29.8173C7.75443 29.9999 8.24142 30.5478 8.88058 31.0347C9.48931 31.5217 10.2807 32.2218 10.6459 32.587C11.0111 32.9827 11.559 33.287 11.8329 33.287C12.1068 33.287 12.3199 33.4088 12.3199 33.561C12.3199 33.9262 15.3331 35.4785 15.6679 35.2654C15.7897 35.1741 16.0636 35.3263 16.2766 35.5698C16.4897 35.8133 16.9158 36.0263 17.2202 36.0263C17.5245 36.0263 17.8593 36.1481 17.9506 36.3307C18.042 36.4829 18.3768 36.635 18.6811 36.635C18.9855 36.635 19.4725 36.909 19.7768 37.2438C20.0812 37.5786 20.5377 37.8525 20.8117 37.8525C22.2726 37.8829 22.1204 38.3699 19.5333 41.8701C17.2202 45.0051 14.5418 47.5922 13.6287 47.5922C13.0808 47.5922 11.7416 44.7311 11.9242 43.9094C12.1677 42.6615 10.0372 40.7744 9.48931 41.7179C9.398 41.8701 9.24582 42.3875 9.12407 42.9354C8.97189 43.7572 9.0632 44.0615 9.7328 44.7311C10.5241 45.5225 12.3199 50.0879 12.3199 51.3054C12.3199 51.6098 11.3459 52.9185 10.1589 54.1969C8.97189 55.5056 7.08483 57.7884 5.98912 59.2493C4.49773 61.2581 3.79769 61.9886 3.12809 62.1103C1.91063 62.3538 0.297503 64.3018 0.327939 65.4888C0.358375 66.8584 0.906232 67.3759 2.06282 67.1628C3.18897 66.9802 4.98472 65.1236 5.01515 64.1496C5.01515 63.7539 5.71519 62.9017 6.8109 61.9277C7.81531 61.0755 10.0067 59.0058 11.6503 57.3318C13.72 55.2621 14.907 54.2882 15.3635 54.2882C16.7941 54.2882 22.1204 55.9013 22.3031 56.3883C22.5465 57.1188 23.0031 57.3318 24.251 57.3318C25.1032 57.3318 25.4076 57.1796 25.5598 56.7231C25.6815 56.3579 25.5598 55.9317 25.3163 55.6578C25.0423 55.4143 24.7988 55.0491 24.738 54.836C24.6467 54.623 24.0988 54.4708 23.4292 54.5012C22.09 54.5317 18.7116 53.0098 18.7116 52.3707C18.7116 51.8533 20.3551 49.1444 21.4204 47.927L22.3335 46.8921L23.5205 47.653L24.7075 48.4444L25.3467 47.1052C26.3815 44.9746 27.5381 43.3006 27.8425 43.4832C27.9947 43.5746 28.2686 44.3659 28.4512 45.279C28.7556 46.7095 28.8469 46.8921 29.4556 46.7704C29.8209 46.6791 31.0079 47.0443 32.1036 47.5617C33.1993 48.0791 34.5385 48.5053 35.0864 48.5053C35.6038 48.5053 36.0603 48.627 36.0603 48.7792C36.0603 49.2662 34.2341 53.0403 33.8993 53.2533C33.6863 53.3751 33.108 53.5577 32.621 53.649C31.4036 53.8925 30.947 54.623 31.4036 55.5665C31.6166 55.9622 31.7992 56.5405 31.8601 56.8753C31.9818 57.5449 32.7732 57.8188 33.5645 57.4536C33.8385 57.3318 34.3255 57.2101 34.6298 57.1796C35.5429 57.0883 36.1212 55.7796 35.4516 55.3535C34.782 54.9578 35.2081 53.8316 36.7299 52.0359C37.6126 51.0315 38.3431 50.1184 38.4039 50.0575C38.4648 49.9358 40.4736 51.4576 42.452 53.162C44.3695 54.8056 44.613 55.3535 44.0651 56.6927C43.3955 58.3058 43.6999 61.1973 44.7043 62.9321C47.8392 68.2585 55.0831 68.8064 58.0963 63.9365C58.8572 62.6886 59.0094 62.1712 58.979 60.4972C58.9181 54.7143 52.7699 50.4532 47.7784 52.7359C47.1088 53.0403 46.3174 53.1925 46.0435 53.1012C45.7696 53.0098 44.339 51.8228 42.8477 50.4532L40.1693 47.9878L39.4692 48.8705C38.617 49.9053 38.2518 49.9358 38.13 49.0531C38.0691 48.5357 37.8561 48.3835 37.3387 48.4139C36.5473 48.5053 36.5169 48.2922 37.156 47.2878L37.643 46.5269L37.0039 47.2574C36.5169 47.8052 36.3647 47.8661 36.3647 47.4704C36.3647 47.1965 36.6386 46.7095 36.9734 46.3747C37.4908 45.8573 37.6735 45.8268 38.1604 46.1312C38.4952 46.3443 38.83 46.7095 38.8909 47.0139C38.9518 47.2878 39.3779 47.5617 39.804 47.653C40.3823 47.7748 40.9302 47.4704 42.1781 46.3443C43.9129 44.792 44.3999 44.6398 45.6174 45.1877C46.5305 45.6138 47.3218 45.1572 47.3218 44.2137C47.3218 43.8789 47.474 43.3615 47.6871 43.0571C48.0827 42.3875 47.5957 41.5049 46.8348 41.5049C46.5913 41.5049 46.1348 41.3527 45.8304 41.1396C45.1608 40.7135 44.339 40.9875 44.0956 41.7179C43.639 43.1789 43.0911 43.7267 41.265 44.7007C39.0735 45.8877 38.4952 45.8877 38.4952 44.7007C38.4952 44.2746 38.0691 43.0876 37.5517 42.0527C36.9734 40.8961 36.6691 39.8917 36.7299 39.3743C36.8517 38.5525 36.7908 38.5221 35.269 38.3699C32.2558 38.0656 32.2862 37.9134 36.2429 34.961C42.4824 30.3043 44.8869 27.4128 46.7131 22.4212C47.8392 19.2863 48.4175 16.6687 48.7219 13.412C48.8741 11.525 48.8436 11.0684 48.5088 11.0684C48.2653 11.0989 46.6218 11.8293 44.8565 12.712ZM48.1132 14.0208C47.7479 18.5862 46.0435 23.6691 43.8216 27.0476C42.5129 28.9955 39.804 31.5826 36.3038 34.2306C30.8557 38.3395 28.1164 41.2309 25.5598 45.6138L24.4032 47.5922L23.3379 46.9226L22.2726 46.253L21.0247 47.653C20.3247 48.3835 19.3507 49.7836 18.8637 50.7271C17.9202 52.462 17.6463 52.5533 16.9767 51.3358C16.6723 50.8184 16.6723 50.4532 16.9158 49.814C17.2202 49.0835 17.281 49.0227 17.4637 49.5097C17.6463 50.0271 17.7071 50.0271 18.0115 49.3575C18.1941 48.9618 18.7116 48.1705 19.1985 47.6226C20.0508 46.5878 20.5682 44.792 19.8073 45.4312C19.5942 45.6138 19.3507 45.7051 19.2594 45.6138C19.1681 45.5225 18.4376 46.1312 17.5854 46.9834C16.7332 47.8052 16.2462 48.5053 16.4897 48.5053C16.7332 48.5053 16.8854 48.6879 16.8245 48.8705C16.6419 49.3575 14.9983 49.3879 14.8461 48.9314C14.7853 48.7487 15.3635 48.1096 16.1549 47.5009C17.5245 46.4356 20.5377 42.8441 20.5377 42.2962C20.5377 42.1136 20.1116 42.6006 19.5638 43.3615C18.2246 45.2181 16.6114 46.9226 15.4549 47.6226C14.907 47.9878 14.4505 48.4444 14.4505 48.6879C14.4505 48.9618 14.3287 49.0531 14.1461 48.9618C13.5982 48.627 13.8113 48.0183 14.6026 47.653C15.881 47.0443 18.0724 44.8529 19.8681 42.2962C21.9074 39.4048 24.9206 36.1481 28.299 33.1957C33.4124 28.7216 35.6647 25.3431 35.969 21.6603C36.1516 19.0732 36.7299 18.2819 40.0171 16.0904C41.5998 15.0252 47.6871 11.7685 48.2045 11.7076C48.2653 11.6772 48.2349 12.7424 48.1132 14.0208ZM6.59785 16.3644C6.93265 16.7296 7.05439 16.7296 7.54138 16.3339C7.99792 15.8774 8.11967 15.8774 8.60665 16.3339C9.03276 16.7296 9.24582 16.76 9.51975 16.4861C9.82411 16.1818 10.0372 16.1818 10.4633 16.4557C10.7676 16.6687 11.2851 16.7296 11.6199 16.6687C11.9547 16.5774 12.3808 16.6992 12.5938 16.9427C12.7764 17.1862 13.233 17.3383 13.5374 17.247C13.933 17.1557 14.207 17.2775 14.3287 17.5818C14.4505 17.8862 14.7244 18.0079 15.0592 17.9166C15.394 17.7949 15.7897 17.9471 16.0331 18.2819C16.2462 18.5862 16.6114 18.8297 16.8245 18.8602C17.6767 18.921 17.7985 19.0123 17.7985 19.4385C17.7985 19.7124 18.0724 19.895 18.4376 19.895C18.8029 19.895 19.1377 20.1385 19.229 20.4733C19.3203 20.8081 19.716 21.1429 20.1116 21.2342C20.5682 21.3559 20.8421 21.6603 20.8421 21.9951C20.8421 22.2995 21.116 22.6343 21.4508 22.7256C21.7856 22.8169 22.0596 23.1517 22.0596 23.4865C22.0596 23.8213 22.3335 24.1561 22.6683 24.2474C23.0031 24.3387 23.277 24.6431 23.277 24.9779C23.277 25.2822 23.5509 25.7084 23.8857 25.9214C24.2206 26.104 24.4032 26.4693 24.3119 26.7128C24.2206 26.9563 24.4032 27.2911 24.7988 27.5041C25.225 27.7172 25.3771 28.0215 25.2554 28.3868C25.1641 28.752 25.2554 29.0259 25.5598 29.1477C25.8032 29.239 26.0163 29.6042 26.0163 29.939C26.0163 30.2738 26.1989 30.5478 26.4424 30.5478C27.0207 30.5478 27.4773 31.1869 27.599 32.1913C27.7207 33.3175 27.1425 33.5305 26.6859 32.5261C26.5033 32.1 26.1685 31.7652 25.9554 31.7652C25.7424 31.7652 25.0728 30.6999 24.4336 29.3912C21.1465 22.4212 15.3635 18.0992 8.69796 17.5818C7.1457 17.4601 6.29348 17.247 6.08043 16.9427C5.86737 16.6687 5.53257 16.547 5.28908 16.6383C4.98472 16.76 5.01515 16.8209 5.41083 16.8209C5.68475 16.8514 5.92825 16.9731 5.92825 17.1253C5.92825 17.521 5.19777 17.3688 4.52817 16.8514C4.19337 16.6079 4.28468 16.7905 4.71079 17.3079C5.1369 17.8253 5.56301 18.2514 5.71519 18.3123C5.95868 18.434 6.84134 20.0167 6.84134 20.3515C6.84134 20.4429 6.68916 20.4429 6.50654 20.3211C6.26305 20.1689 6.26305 20.2907 6.50654 20.7168C6.68916 21.0516 6.75003 21.4168 6.65872 21.5081C6.56741 21.5994 7.05439 22.7256 7.75443 24.0344C8.42403 25.3736 8.91102 26.104 8.78927 25.6779C8.69796 25.2518 8.24142 24.3083 7.81531 23.5778C6.99352 22.0864 6.59785 20.3211 7.20658 20.6863C7.45007 20.8385 7.4805 20.7168 7.35876 20.3211C7.20658 19.9254 7.35876 19.9863 7.90661 20.595C8.42403 21.1733 8.85014 21.3864 9.21538 21.2646C9.58062 21.1733 10.2807 21.4777 11.2242 22.2082C12.0155 22.8169 12.746 23.243 12.8373 23.1517C13.0199 22.9386 8.94145 20.1994 8.45447 20.1994C8.27185 20.1994 7.84574 19.895 7.54138 19.4993C7.23701 19.1341 6.68916 18.6775 6.38479 18.4949C5.71519 18.1297 5.8065 17.5514 6.50654 17.7036C7.08483 17.8558 7.75443 18.7384 7.54138 19.0732C7.45007 19.2254 7.63269 19.195 7.96749 19.0428C8.3936 18.7993 9.12407 18.9819 11.072 19.7733C12.4721 20.3515 13.6895 20.7777 13.7504 20.6863C14.0548 20.382 8.7284 18.3732 8.15011 18.5862C7.96749 18.6471 7.724 18.5862 7.63269 18.4036C7.51094 18.2514 7.69356 18.1297 7.96749 18.1297C8.27185 18.1297 8.75884 18.0384 9.0632 17.9166C9.36756 17.7949 9.58062 17.8253 9.58062 18.0384C9.58062 18.2514 9.88498 18.3123 10.4328 18.1906C11.072 18.0688 11.1633 18.0992 10.7981 18.3732C10.4328 18.6471 10.585 18.6775 11.4068 18.5254C12.1068 18.4036 12.3199 18.434 12.046 18.6167C11.772 18.8297 12.046 18.9515 13.0199 19.1036C14.2983 19.2863 17.4028 20.8994 18.4072 21.9038C18.7724 22.269 18.7724 22.3299 18.1637 22.3299C17.7985 22.3299 17.4941 22.5125 17.4941 22.756C17.4941 22.9691 17.2202 23.243 16.8854 23.3343C16.1853 23.5169 16.094 24.3996 16.7027 25.2214C17.0984 25.7997 17.1289 25.7692 17.0984 25.0083C17.068 24.5822 16.9158 24.2778 16.7636 24.3692C16.6114 24.4605 16.5506 24.3692 16.6419 24.1257C16.7332 23.8822 17.068 23.6691 17.4332 23.6082C17.7985 23.5474 18.0115 23.3343 17.9202 23.1213C17.8289 22.8778 18.042 22.6343 18.3768 22.543C19.4725 22.269 22.2422 25.6779 24.1901 29.6955C24.8597 31.0956 25.5598 32.2218 25.7119 32.2218C25.8641 32.2218 26.2294 32.5261 26.5033 32.9218C26.9598 33.5914 26.9294 33.6523 26.2294 34.3219C25.4989 34.9915 25.4684 34.9915 24.7684 34.4741C24.3727 34.1697 24.1597 33.8349 24.2814 33.7131C24.4032 33.5914 24.3423 33.3175 24.1597 33.074C23.764 32.6479 23.8857 32.587 24.6162 32.8609C24.8902 32.9522 25.1032 33.3175 25.1032 33.6218C25.1032 34.0175 25.2554 34.1393 25.6206 33.9871C26.0467 33.8349 25.9554 33.6523 25.0728 32.8914C24.4336 32.3435 24.1901 31.9478 24.4032 31.8565C24.6467 31.7652 24.5554 31.4608 24.0684 30.9434C23.6423 30.4869 23.1553 30.2434 22.8813 30.3347C22.6074 30.426 22.2422 30.3347 22.0596 30.0912C21.603 29.5434 21.9683 28.8737 22.4857 29.2999C22.6987 29.4825 23.0031 29.4825 23.277 29.3303C23.9162 28.9346 23.4596 28.6303 22.2117 28.5694C21.2682 28.5389 21.1769 28.6303 21.3291 29.1781C21.4508 29.5129 21.7248 30.0303 21.9987 30.3347C22.2422 30.6086 22.3944 30.913 22.3031 31.0043C21.8161 31.4913 20.2638 27.8998 20.6595 27.2302C20.7812 27.0476 21.116 26.8954 21.39 26.8954C21.8769 26.9258 21.8769 26.9258 21.39 27.2302C21.0856 27.3824 20.8421 27.6867 20.8421 27.8998C20.8421 28.1433 20.9334 28.1128 21.116 27.8389C21.2682 27.5954 21.603 27.5041 21.8769 27.5954C22.3031 27.778 22.3335 27.6867 22.0596 27.1997C21.8769 26.8649 21.4508 26.591 21.1465 26.591C20.6595 26.591 20.5377 26.378 20.5377 25.6779C20.5377 25.0996 20.2638 24.4605 19.8073 24.0039C19.4116 23.6082 19.0159 23.1517 18.9855 22.9691C18.8942 22.7865 18.6811 22.756 18.4376 22.9082C18.1028 23.1213 18.2246 23.3039 18.9246 23.6691C19.8986 24.1561 20.2334 24.704 20.2334 25.7692C20.2334 26.3171 20.1116 26.2258 19.6855 25.3736C19.3203 24.6126 18.9855 24.3387 18.5594 24.3996C17.6463 24.5518 17.3115 25.0083 17.768 25.4344C18.0724 25.7692 18.1028 25.7388 17.9506 25.2822C17.768 24.8866 17.8898 24.7648 18.3768 24.7648C18.8029 24.7648 19.1985 25.0996 19.5333 25.8301C19.8073 26.4084 20.1725 26.7736 20.3247 26.6823C20.5073 26.591 20.5377 26.6519 20.416 26.8345C20.1725 27.2606 18.8942 27.0171 17.8593 26.378C16.8245 25.7388 16.7332 26.0432 17.6463 27.0476C18.1028 27.5041 18.4072 28.0824 18.3463 28.3259C18.2854 28.6607 17.4332 28.0824 15.6679 26.5606C12.7156 23.9735 10.2198 21.9342 9.67193 21.5994C8.51534 20.9603 10.0372 22.6647 13.2634 25.7388C15.2722 27.6259 16.7636 29.2085 16.581 29.2694C16.4288 29.3303 16.2766 29.5738 16.2766 29.7868C16.2766 30.0608 16.0027 29.939 15.5157 29.4825C14.4809 28.4172 14.0243 28.5085 14.6026 29.6651C15.2114 30.8217 14.9983 31.0956 13.9939 30.426C13.1721 29.8782 12.9286 29.1477 13.72 29.452C13.9939 29.5434 14.0852 29.5129 13.9939 29.3303C13.8722 29.1477 13.5678 29.0564 13.2939 29.0868C12.9895 29.1477 12.746 28.9346 12.6851 28.5694C12.5634 28.0824 12.6243 28.052 13.0199 28.3563C13.5374 28.7824 14.0243 28.3563 13.6895 27.8085C13.4156 27.3824 12.8678 27.4432 11.7416 27.9911C11.0111 28.3563 10.7981 28.6607 10.859 29.1477C10.9198 29.5129 11.1633 29.7868 11.4677 29.7868C11.7416 29.7868 12.1982 30.0303 12.533 30.2738C13.3243 31.0043 14.3287 31.4608 15.0287 31.4608C15.3635 31.4608 15.7897 31.7348 15.9723 32.0696C16.1549 32.4044 16.581 32.8305 16.9158 33.0131C17.4941 33.287 17.5245 33.2566 17.3419 32.7087C17.0375 31.7348 17.7071 31.9478 18.255 32.9827C18.7116 33.8958 19.1985 34.261 18.9246 33.5001C18.8637 33.3175 18.9246 32.8001 19.0768 32.3739C19.229 31.9783 19.2594 31.7348 19.1377 31.8565C18.8333 32.1609 18.1028 31.4913 18.1028 30.913C18.1028 30.5478 18.2854 30.6086 18.8637 31.1565C19.2898 31.5522 19.5638 31.9478 19.4725 32.0087C19.3812 32.1 19.5638 32.3435 19.8681 32.587C20.2638 32.8914 20.2638 32.9522 19.929 32.8914C19.6855 32.8305 19.5942 32.8305 19.716 32.9218C19.8377 32.9827 19.8073 33.2262 19.6246 33.4088C19.4116 33.6827 19.5029 33.9566 19.929 34.3523C20.2638 34.6567 20.629 34.8089 20.7508 34.7175C20.8421 34.5958 20.7508 34.5045 20.5073 34.5045C20.1725 34.5045 20.1725 34.4436 20.5377 34.2001C20.9334 33.9566 20.903 33.8958 20.4769 33.8958C20.1725 33.8958 19.929 33.7436 19.929 33.5914C19.929 33.4088 20.0203 33.287 20.1725 33.287C20.5377 33.287 21.2987 33.8653 21.2987 34.1088C21.3291 34.3827 23.0031 36.9394 23.1553 36.9394C23.2161 36.9394 23.1553 36.7264 23.064 36.422C22.9118 36.0567 22.9727 35.9959 23.3075 36.1785C23.5509 36.3307 23.6423 36.3307 23.4901 36.1481C23.3379 35.9959 23.064 35.8741 22.9118 35.8741C22.7292 35.8741 22.5161 35.6915 22.4552 35.4785C22.2726 34.961 22.9727 35.0219 23.7031 35.6002C24.0684 35.8741 22.09 33.8653 19.3203 31.1565C16.5506 28.4476 14.4505 26.2867 14.6635 26.3475C14.8461 26.378 17.281 28.4172 20.0508 30.8521L25.0728 35.2654L24.1901 36.1176C23.7031 36.5742 23.1857 37.1829 23.0031 37.4568C22.7596 37.9134 22.577 37.9134 21.4508 37.5786C20.6595 37.3351 20.1116 36.9698 20.0203 36.635C19.929 36.3002 19.6855 36.1481 19.442 36.2394C19.1985 36.3307 18.742 36.1785 18.4376 35.9046C18.1333 35.6306 17.6767 35.4785 17.4028 35.6002C17.0984 35.6915 16.7941 35.5393 16.5506 35.1741C16.3071 34.8089 15.9723 34.6567 15.4853 34.748C14.9983 34.8393 14.6939 34.7175 14.5722 34.3827C14.4809 34.1088 14.0548 33.8958 13.6895 33.8958C13.233 33.8958 12.8982 33.6523 12.7764 33.3175C12.6851 32.9827 12.4112 32.7696 12.1982 32.8609C11.9547 32.9522 11.5894 32.7696 11.3764 32.4348C11.1329 32.1305 10.6459 31.7652 10.2807 31.6435C9.88498 31.5217 9.58062 31.2478 9.58062 31.0347C9.58062 30.8217 9.24582 30.4869 8.81971 30.3043C8.3936 30.1216 8.0588 29.8173 8.0588 29.6347C8.0588 29.4825 7.78487 29.0564 7.45007 28.7216C7.11527 28.3868 6.93265 27.9302 7.02396 27.7172C7.11527 27.4432 6.93265 27.1997 6.50654 27.1084C6.01956 26.9867 5.89781 26.7736 6.01956 26.2867C6.11086 25.8605 5.98912 25.5562 5.59344 25.3431C5.19777 25.1301 5.04559 24.8257 5.16733 24.4909C5.25864 24.1865 5.1369 23.7604 4.86297 23.5474C4.58904 23.3039 4.4673 22.9082 4.58904 22.5734C4.68035 22.269 4.61948 21.8429 4.4673 21.6299C4.28468 21.4168 4.13249 20.9298 4.13249 20.5037C4.10206 20.0776 4.04119 19.0123 3.98031 18.1297C3.889 16.6992 3.94988 16.4557 4.52817 16.2426C5.50214 15.847 6.17174 15.8774 6.59785 16.3644ZM20.2638 28.2041C20.5986 28.8129 20.7508 29.4216 20.629 29.9086C20.5073 30.3347 20.5682 30.5782 20.7508 30.4564C20.903 30.3651 21.5726 30.7912 22.2117 31.4608C22.8509 32.1305 23.5205 32.5566 23.7031 32.4653C23.8857 32.3739 23.9466 32.3739 23.8249 32.5261C23.7031 32.6479 23.764 32.9827 23.9771 33.2262C24.7684 34.2001 23.5814 33.4088 21.2987 31.4913C19.929 30.3043 19.1377 29.452 19.3507 29.3303C19.5638 29.1781 19.5029 29.0564 19.1985 28.9346C18.6811 28.7216 18.5289 27.8085 19.0159 27.8085C19.1985 27.8085 19.3203 28.052 19.3203 28.3259C19.3203 28.7824 19.3812 28.8129 19.6246 28.4172C19.8377 28.052 19.716 27.8693 19.0159 27.565C17.8898 27.1084 17.8593 26.9258 18.8942 27.1389C19.3507 27.2302 19.929 27.6867 20.2638 28.2041ZM13.3243 30.213C13.6895 30.6086 13.7808 30.8521 13.5374 30.6999C12.5025 30.1521 12.0155 29.5129 12.046 28.752V27.9607L12.3503 28.7216C12.533 29.1477 12.9591 29.8173 13.3243 30.213ZM16.4288 31.4C16.1853 31.6435 15.6679 31.0956 15.2114 30.1521L14.7244 29.1781L15.6375 30.213C16.1549 30.7912 16.5201 31.3391 16.4288 31.4ZM17.6767 30.4564C17.7985 30.9434 18.1028 31.5522 18.3463 31.8261C18.6507 32.1913 18.6811 32.3739 18.4681 32.3739C18.255 32.3739 18.1028 32.2218 18.1028 32.0696C18.1028 31.6435 16.9462 31.7043 16.7941 32.1305C16.7332 32.3739 16.5506 32.4044 16.3984 32.2522C16.2462 32.1 16.4288 31.7957 16.8245 31.5522C17.6158 31.0043 17.6767 30.3956 16.9767 29.9695C16.4593 29.6651 16.4593 29.6651 16.9462 29.6347C17.281 29.6347 17.555 29.939 17.6767 30.4564ZM23.4596 30.9434C23.7336 30.8521 23.8857 31.0043 23.8857 31.4304C23.8857 31.7957 23.7944 32.0696 23.7031 32.0696C23.3988 32.0696 22.6987 31.0652 22.6987 30.6999C22.6987 30.5173 22.79 30.5478 22.8509 30.7608C22.9422 30.9739 23.2161 31.0347 23.4596 30.9434ZM34.8429 38.7352C35.6951 38.8873 35.9081 39.1004 36.0908 39.8309C36.1821 40.3483 36.6386 41.4136 37.0647 42.2658C38.13 44.3355 38.3735 45.3399 37.7648 45.5529C37.4908 45.6747 37.3082 45.5529 37.3082 45.2181C37.3082 43.5746 36.2429 41.0483 35.6951 41.3831C35.5429 41.4744 35.482 41.2309 35.5429 40.8353C35.6038 40.47 35.6038 40.3179 35.5125 40.5613C35.4212 40.8961 35.2385 40.8353 34.8124 40.257C34.5081 39.8613 34.2341 39.6787 34.2341 39.8613C34.2341 40.0135 34.8429 40.8961 35.6038 41.7788C37.5517 44.0615 37.3082 44.3963 35.2994 42.2658C34.3863 41.2614 33.6254 40.3483 33.6254 40.2265C33.6254 40.0744 33.4732 39.9831 33.2906 39.9831C32.8949 39.9831 34.5994 42.1745 36.1821 43.7267C36.8517 44.3355 37.3082 44.9138 37.2169 45.0051C37.1256 45.0964 36.3647 44.5181 35.5125 43.6963C34.6603 42.8745 33.8689 42.2658 33.7472 42.3875C33.6254 42.4788 33.6254 42.418 33.7167 42.2353C33.808 42.0527 33.5037 41.5353 33.0167 41.0483C32.2862 40.3483 32.1949 40.1352 32.4993 39.6482C32.7732 39.1917 33.108 39.1004 33.9298 39.2221C35.1472 39.4048 34.9037 39.2526 33.2602 38.8265C32.3471 38.583 32.1645 38.6134 32.3166 38.9482C32.4993 39.4656 31.921 39.5265 31.6166 39.0395C31.3122 38.5221 32.134 38.1264 33.0167 38.3395C33.4428 38.4612 34.2646 38.6438 34.8429 38.7352ZM31.921 40.1352C32.621 41.2309 32.5297 41.4136 31.647 40.5918C30.8557 39.8613 30.6731 39.3743 31.1601 39.3743C31.3122 39.3743 31.647 39.7091 31.921 40.1352ZM36.8212 45.766C36.9125 45.8877 36.7299 46.1921 36.4256 46.466C35.9386 46.8921 35.6647 46.6791 32.8645 44.0615C31.2209 42.5093 29.7904 41.2918 29.6991 41.3831C29.6078 41.444 29.5165 41.8092 29.4556 42.2049C29.3339 42.8441 29.3643 42.8441 29.7904 42.2658C30.2165 41.7179 30.247 41.7179 30.2774 42.1745C30.2774 42.4788 30.3687 42.7223 30.5209 42.7223C30.6426 42.7223 31.7992 43.7572 33.108 45.0051C34.4168 46.253 35.6038 47.2878 35.756 47.2878C35.9386 47.2878 36.0603 47.4095 36.0603 47.5922C36.0603 48.2009 33.9298 47.8661 32.0427 46.9834C31.0079 46.4965 29.9122 46.0703 29.6382 46.0703C29.3339 46.0703 29.0295 45.5834 28.786 44.7616C28.573 44.0615 28.2686 43.3311 28.086 43.118C27.9338 42.9049 27.9338 42.7223 28.086 42.6006C28.2382 42.5093 28.5425 42.8441 28.7556 43.3311C28.9686 43.8485 29.2121 44.2137 29.273 44.1224C29.3339 44.0615 29.1817 43.5746 28.9382 43.0571C28.4512 42.144 28.4817 42.1136 29.4252 41.0788L30.3687 40.0439L33.5341 42.7832C35.269 44.305 36.7604 45.6442 36.8212 45.766ZM45.8 42.0223C45.8 42.3875 45.8913 42.418 46.2565 42.1136C46.5 41.931 46.8348 41.8397 47.0175 41.9614C47.474 42.2353 47.3827 43.0267 46.8653 43.2093C46.5 43.3615 46.4696 43.5137 46.7435 43.818C47.1696 44.3355 46.8348 44.8529 46.0739 44.8529C45.6782 44.8529 45.4956 44.6398 45.4956 44.1833C45.4956 43.5441 45.4652 43.5441 45.0695 44.092C44.826 44.4268 44.4912 44.579 44.1564 44.4572C43.4564 44.1833 43.5477 43.3006 44.2782 43.118C44.7652 42.9963 44.826 42.8745 44.5521 42.5397C44.2782 42.2049 44.3086 41.9919 44.5825 41.6875C45.0086 41.1396 45.8 41.3831 45.8 42.0223ZM11.3155 43.1789C11.4372 43.5137 11.4981 44.0311 11.4372 44.305C11.4068 44.579 11.5894 45.2486 11.8634 45.766C12.1373 46.2834 12.259 46.8617 12.1373 47.0443C12.0155 47.2574 12.046 47.2878 12.259 47.1661C12.4721 47.0443 12.8678 47.4704 13.233 48.2009C13.5982 48.9009 14.0852 49.5401 14.3287 49.6314C14.7244 49.7836 14.7244 49.8445 14.3896 50.0879C14.1461 50.2401 14.42 50.2706 15.1505 50.1488C16.1853 49.9662 16.2766 50.0271 16.2766 50.6967C16.2766 51.0924 16.4593 51.6402 16.6723 51.9141C17.1289 52.5229 22.9727 55.5056 22.9727 55.1404C22.9727 55.0187 23.2466 54.8969 23.5814 54.8969C24.1901 54.8969 25.3467 56.297 25.0119 56.6318C24.8902 56.7231 24.6771 56.4492 24.5249 55.9926C24.3423 55.5361 23.9771 55.2013 23.6727 55.2317C23.1553 55.2621 23.1553 55.2926 23.6727 55.4143C23.9466 55.4752 24.1901 55.7491 24.1901 56.0231C24.1901 56.3883 24.0075 56.4492 23.3683 56.2665C22.8813 56.1752 22.3944 55.8709 22.2726 55.6274C22.1509 55.3839 21.8161 55.2013 21.5726 55.2013C21.3291 55.2013 19.8681 54.836 18.3463 54.4099C14.2678 53.2838 13.4156 52.4316 11.9851 48.2618C11.3459 46.466 10.9198 44.9138 10.9807 44.8224C11.0416 44.7007 10.859 44.6398 10.585 44.6703C10.1589 44.7007 10.0372 44.4268 10.0067 43.2702C9.94586 41.931 9.97629 41.8701 10.5241 42.2049C10.859 42.418 11.1938 42.8441 11.3155 43.1789ZM43.3651 44.3355C43.3651 44.4876 39.4996 47.2878 39.2866 47.2878C39.1953 47.2878 39.104 47.1052 39.104 46.8617C39.104 46.6182 39.9562 45.9182 41.0215 45.3399C42.7563 44.3355 43.3651 44.092 43.3651 44.3355ZM19.6246 46.3443C19.6246 46.4965 19.4116 46.7704 19.1377 47.0139C18.8942 47.2269 18.4681 47.8052 18.1941 48.2922C17.7985 49.0835 17.7071 49.1444 17.281 48.7183C16.8549 48.3226 16.9158 48.14 17.8289 47.1661C18.8029 46.1312 19.6246 45.766 19.6246 46.3443ZM37.8865 49.2966C37.8865 49.8749 36.0908 52.3098 35.6647 52.3098C35.4516 52.3098 35.1777 52.8577 34.9951 53.5273C34.8429 54.1969 34.5994 54.836 34.4472 54.9273C34.295 55.0187 34.3863 55.2013 34.6603 55.2926C35.2081 55.5056 35.2994 56.297 34.8429 56.5709C34.6603 56.6927 34.3255 56.6013 34.082 56.4187C33.7167 56.1144 33.6254 56.1448 33.6254 56.51C33.6254 57.271 33.0167 57.4536 32.4688 56.9057C31.9818 56.4187 31.9818 56.3579 32.5297 55.9317C33.108 55.5056 33.108 55.5056 32.4993 55.5056C31.7079 55.5056 31.3731 54.7447 31.9818 54.2882C32.2862 53.9838 32.4993 53.9838 32.8341 54.2577C33.1384 54.5317 33.2906 54.5012 33.4428 54.136C33.5341 53.8925 33.7776 53.6795 33.9907 53.6795C34.2341 53.6795 34.8124 52.7664 35.2994 51.6402C35.7864 50.5141 36.4256 49.3575 36.7299 49.0531C37.3387 48.4444 37.8865 48.5661 37.8865 49.2966ZM42.7563 51.3967C45.6478 54.3186 45.3434 55.0187 42.2998 52.4011C41.1432 51.3967 39.9258 50.4532 39.6518 50.301C39.0127 49.9662 39.2562 49.114 39.9866 49.114C40.2606 49.114 41.5085 50.1488 42.7563 51.3967ZM13.9939 52.7664C14.4809 53.2533 14.7548 53.7708 14.6635 53.8925C14.42 54.1056 12.6243 52.5229 12.6243 52.0968C12.6243 51.6098 13.1417 51.8533 13.9939 52.7664ZM53.2874 52.9794C54.8092 53.4968 57.9746 56.2665 57.9746 57.0883C57.9746 57.3014 57.6702 57.0275 57.3354 56.4796C56.9702 55.9317 56.6049 55.5665 56.5136 55.6578C56.4223 55.7187 56.5745 56.0535 56.818 56.3274C57.0615 56.6318 57.518 57.5144 57.8224 58.3058C58.3398 59.7059 58.3398 60.7103 57.8224 62.8104L57.6398 63.5713L58.0963 62.8104C58.705 61.806 58.705 62.2625 58.1268 63.4191C57.6093 64.4235 57.2745 64.6366 57.5485 63.7844C57.6702 63.5104 57.3658 63.7235 56.9093 64.2409C56.4832 64.7888 55.9658 65.2453 55.7831 65.2453C55.631 65.2453 55.9049 64.7583 56.4223 64.18C57.4572 62.993 57.5789 62.6278 57.0006 62.4147C56.6962 62.3234 56.7267 62.1408 57.0919 61.7147C58.1268 60.4972 56.7267 56.8448 54.657 55.2926C54.0483 54.836 53.4395 54.2882 53.2569 54.0751C53.1047 53.8621 52.3134 53.5881 51.522 53.4968C50.3959 53.3447 49.8176 53.436 48.8132 53.9534C47.8088 54.5012 47.474 54.5621 47.2914 54.2273C46.8957 53.6186 47.1088 53.2838 48.2653 52.8881C49.7263 52.3402 51.5525 52.3707 53.2874 52.9794ZM13.0808 53.1925C13.6287 53.5881 13.5678 53.7099 11.8025 55.6883C10.7676 56.8448 8.78927 58.9145 7.3892 60.2842C6.01956 61.6234 4.07162 63.6626 3.06722 64.7888C2.00194 66.0062 1.18016 66.7062 0.997541 66.5236C0.845359 66.3714 1.2106 65.7323 1.94107 64.9409C2.61067 64.2105 3.09766 63.5409 3.03678 63.48C2.97591 63.3887 2.5498 63.7844 2.12369 64.3018C1.36278 65.1844 0.754049 65.5192 0.754049 65.0018C0.784486 64.5148 2.51936 62.7191 3.06722 62.6582C4.40642 62.506 5.77606 61.4407 5.77606 60.4972C5.77606 59.7972 11.7112 52.7664 12.2895 52.7664C12.4112 52.7664 12.7764 52.949 13.0808 53.1925ZM46.8044 54.3491C47.3827 55.1404 47.3218 56.4187 46.6522 56.4187C46.1652 56.4187 44.5825 55.2013 44.5825 54.836C44.5825 54.3491 45.5565 53.3447 45.9217 53.4664C46.0739 53.5273 46.4696 53.9229 46.8044 54.3491ZM53.0743 55.1708C54.5048 55.9013 56.0875 57.6666 56.331 58.7928C56.4223 59.2493 56.5745 59.7972 56.6354 60.0407C56.9093 60.8929 56.118 62.7799 55.0831 63.693C53.7135 64.8801 52.3134 65.1236 50.4263 64.5148C47.3523 63.48 45.1913 59.6146 46.4392 57.3014C46.7435 56.7231 46.8044 56.7535 48.0219 57.7884C48.9958 58.6102 49.3306 59.158 49.4524 60.0102C49.6045 61.1059 49.635 61.1364 50.9133 61.1668C51.6134 61.1668 52.3134 61.0451 52.4656 60.8625C52.6786 60.5885 52.7091 59.4624 52.5264 58.1536C52.496 58.0319 52.0395 57.9406 51.4916 57.9406C50.7003 57.9406 50.2133 57.6362 49.148 56.5709L47.8088 55.2317L48.5697 54.9273C49.7872 54.4404 51.8264 54.5621 53.0743 55.1708ZM48.9045 57.271C49.4828 57.9101 50.0915 58.3971 50.2742 58.3362C50.4568 58.2754 50.7003 58.3667 50.822 58.5493C50.9742 58.7928 51.1264 58.7928 51.4307 58.5493C51.9786 58.0927 52.3743 58.7319 51.8873 59.3102C51.6134 59.645 51.6134 59.7667 51.8568 59.7667C52.0395 59.7667 52.1916 59.9798 52.1916 60.2233C52.1916 60.4668 51.9786 60.6798 51.7351 60.6798C51.4916 60.6798 51.2786 60.5277 51.2786 60.3146C51.2786 60.132 51.0959 60.2233 50.8524 60.5581C50.4872 61.0451 50.335 61.0755 50.0002 60.7103C49.6654 60.3755 49.6959 60.2537 50.122 59.9798C50.5481 59.7059 50.3959 59.4624 48.9654 58.1232C48.0523 57.3014 47.3218 56.51 47.3218 56.3579C47.3218 55.8404 47.9001 56.1752 48.9045 57.271ZM45.6478 59.3711C46.0739 62.4147 48.2349 64.6366 51.2177 65.1236C52.8917 65.3975 54.9614 64.6061 55.9962 63.3278C56.4223 62.7799 56.7571 62.506 56.7571 62.6886C56.7571 63.2669 55.5397 64.6366 54.5657 65.1236C53.3787 65.7323 50.4263 65.9758 49.3002 65.5497C46.4392 64.454 44.1564 60.832 44.7652 58.3667C45.0391 57.3014 45.4043 57.7275 45.6478 59.3711ZM4.71079 64.2409C4.68035 64.6974 2.61067 66.8889 2.42805 66.7062C2.30631 66.5845 2.67155 65.9453 3.2194 65.2757C4.13249 64.1192 4.74122 63.7235 4.71079 64.2409Z" fill="#E37619"/>
<path d="M44.3999 14.2033C41.1432 15.8773 39.6518 16.8818 37.8256 18.6471C36.7908 19.5906 36.669 19.8645 36.669 21.2646C36.669 22.1473 36.3647 23.4865 35.969 24.4604C34.6907 27.5954 33.0471 29.5129 27.112 34.961C22.8509 38.8264 20.5377 41.5961 20.7812 42.5092C20.8725 42.8745 21.116 43.2702 21.2986 43.3919C21.6943 43.6354 21.5421 45.1572 21.116 45.1572C20.9638 45.1572 20.9334 44.9137 21.0551 44.6094C21.2073 44.2137 21.1465 44.1832 20.8421 44.4572C20.629 44.6398 20.5682 44.9442 20.6595 45.1268C20.9334 45.5529 21.7552 45.5529 21.7856 45.1572C21.8161 44.9746 21.8769 44.7007 21.9074 44.5485C21.9378 44.3659 21.9987 44.0919 22.0291 43.9398C22.0291 43.7571 22.3943 43.6963 22.8205 43.818C23.277 43.9398 23.5814 43.8789 23.5814 43.6658C23.5814 43.3919 25.2858 43.5136 25.651 43.818C25.8337 43.9398 24.3727 46.3747 24.0988 46.3747C23.977 46.3747 23.5205 46.1616 23.1248 45.8877C22.4248 45.4311 22.3335 45.4616 21.4204 46.1007C20.5377 46.7095 17.4941 50.9706 17.4941 51.5793C17.4941 52.1272 17.768 51.7924 18.4376 50.4532C18.8333 49.6922 19.8377 48.3226 20.6899 47.3791L22.2117 45.7051L23.2161 46.2529C24.2205 46.8008 24.251 46.8008 24.5858 46.2834C28.0251 40.7744 30.4904 38.1264 35.9081 33.987C41.6606 29.6042 43.9129 26.8953 45.8608 22.0255C46.8348 19.5906 47.687 15.4512 47.5653 13.8381L47.474 12.6207L44.3999 14.2033ZM47.3218 13.8685C47.3218 16.5165 46.0435 21.2342 44.5216 24.2778C42.6955 27.8997 40.9606 29.7564 35.0559 34.2914C31.3122 37.2133 28.9991 39.4352 27.3251 41.7179C26.5337 42.7832 25.8337 43.5441 25.7728 43.3919C25.7119 43.2093 25.4076 43.1484 25.1032 43.2397C24.6162 43.3615 24.4945 43.2397 24.4945 42.6919V41.9918L24.0379 42.631C23.4292 43.4832 21.8161 43.7267 21.4508 42.9962C21.2378 42.631 21.2682 42.4179 21.5421 42.3266C21.7552 42.2353 21.6639 42.144 21.3595 42.144C20.5073 42.1136 23.1553 38.8873 26.625 35.7523C34.782 28.3563 36.9734 25.2822 36.9734 21.295C36.9734 19.6515 36.9734 19.6515 38.7996 18.1601C41.2345 16.1817 44.2173 14.4164 44.7651 14.6295C45.0999 14.7512 45.1304 14.9034 44.8564 15.2077C44.5825 15.5425 44.6434 15.8165 45.0086 16.3948C45.2826 16.8209 45.3739 17.1557 45.1912 17.1557C45.0086 17.1557 44.6738 16.6991 44.4303 16.1513C44.1868 15.6339 44.0042 15.3904 43.9738 15.6339C43.9738 16.0295 43.9434 16.0295 43.6694 15.6339C43.4259 15.2382 43.3651 15.2686 43.3651 15.6947C43.3651 15.9991 43.4868 16.2426 43.639 16.2426C44.0347 16.2426 44.2477 17.734 43.8825 17.9775C43.6999 18.0688 43.6694 18.0079 43.7912 17.8253C43.9434 17.5818 43.852 17.5209 43.5477 17.6427C43.2738 17.734 43.0607 17.6731 43.0607 17.4905C43.0607 17.3079 43.2129 17.1557 43.3955 17.1557C43.639 17.1557 43.639 17.0035 43.3651 16.6991C43.0607 16.3339 42.8781 16.3035 42.5737 16.5774C42.3302 16.76 42.1476 17.0948 42.1476 17.3383C42.1476 17.9775 43.0911 18.7079 43.6694 18.5253C44.0955 18.4036 43.9434 18.8297 42.9998 20.6254L41.8128 22.9082L42.4215 23.5169L43.0607 24.1561L43.5477 23.1821C44.1564 22.0255 45.1912 19.0427 45.1912 18.4949C45.1912 18.2514 45.0086 18.1601 44.7347 18.2514C44.3999 18.4036 44.339 18.3123 44.4608 17.947C44.5521 17.6731 44.8869 17.46 45.1912 17.46C45.9522 17.46 46.2565 16.8818 45.6782 16.6687C45.4043 16.5774 45.1912 16.3339 45.1912 16.1817C45.1912 15.9991 45.4043 15.9382 45.6478 16.06C46.3478 16.3035 46.2261 15.2382 45.4956 14.7208C44.9173 14.2947 44.9173 14.2642 45.8608 13.7468C47.1696 13.0468 47.3218 13.0772 47.3218 13.8685ZM44.3086 20.2602C43.152 23.5473 43.0303 23.7604 42.7259 23.2125C42.5433 22.8473 42.7259 22.1168 43.3651 20.6863C44.4608 18.2818 45.0999 18.0079 44.3086 20.2602Z" fill="#E37619"/>
<path d="M39.8344 18.4645C38.5561 19.4384 38.5561 19.4384 38.7083 21.1124C38.7996 22.0255 38.8909 22.8169 38.9213 22.8473C38.9213 22.8777 39.3474 22.8169 39.8344 22.7256C40.6258 22.5734 40.6866 22.4821 40.504 21.3864C40.3518 20.3515 40.4127 20.1993 41.2345 19.6819C41.7823 19.3776 42.0867 18.9819 41.9954 18.7384C41.9041 18.4949 41.8432 18.1297 41.8432 17.8862C41.8432 17.2166 41.1736 17.3992 39.8344 18.4645ZM40.7475 19.4993C39.8648 20.108 39.7735 20.2906 40.017 21.082C40.1996 21.782 40.1692 22.0255 39.804 22.1777C39.1648 22.3908 39.1648 22.3908 39.0735 20.8994C38.9822 19.7428 39.0735 19.5297 40.1692 18.6775C41.2649 17.8253 41.3867 17.7949 41.5693 18.2818C41.691 18.6775 41.478 19.0123 40.7475 19.4993Z" fill="#E37619"/>
<path d="M38.83 24.1256C38.13 24.7039 37.8561 25.13 37.9778 25.4953C38.13 25.8301 38.0082 25.9823 37.5821 25.9823C37.0343 25.9823 36.8212 26.4084 36.943 27.3519C36.943 27.5345 36.6995 27.6867 36.3647 27.6867C35.6646 27.6867 35.6038 27.5041 36.1516 26.8953C36.456 26.5301 36.4255 26.5301 35.9994 26.8649C35.3298 27.3519 35.2994 27.9302 35.9081 28.4172C36.5777 28.965 36.4864 29.2389 35.5733 29.452C35.0559 29.6042 34.8428 29.8172 34.9646 30.0912C35.0559 30.3347 34.995 30.5477 34.8124 30.5477C34.6298 30.5477 34.5994 30.6695 34.6907 30.8521C34.995 31.3391 35.7559 31.2173 35.5733 30.6999C35.3907 30.2434 35.9081 30.0607 36.1821 30.4868C36.4255 30.913 35.9386 31.3695 35.0863 31.5217C34.4472 31.6434 34.2341 31.5521 34.1732 31.0651C34.0515 30.2129 33.321 30.0303 33.108 30.7912C33.0167 31.1564 32.6514 31.4608 32.3166 31.5217C31.9514 31.5826 31.4948 31.9478 31.2818 32.3739C31.0687 32.8 30.7035 33.1044 30.46 33.0435C30.2165 33.0131 29.9426 33.1044 29.8208 33.287C29.7295 33.4696 29.8208 33.5001 30.0948 33.4087C30.3991 33.287 30.5817 33.3783 30.5817 33.6218C30.5817 33.9566 30.6731 33.9566 30.8861 33.5914C31.0383 33.3479 31.1905 33.287 31.1905 33.4696C31.1905 34.0175 30.3687 34.5958 30.1252 34.2305C29.9121 33.8349 28.1468 34.6566 28.1468 35.1436C28.1468 35.3262 28.299 35.3567 28.4816 35.2654C28.6338 35.1436 29.0599 35.2958 29.3947 35.6002C30.3078 36.422 30.0643 37.9742 29.1512 37.2133C28.8164 36.9089 28.8164 36.7568 29.1208 36.3915C29.4556 35.9958 29.4252 35.935 28.9991 36.1176C28.7251 36.2089 28.4512 36.148 28.3599 35.935C28.2077 35.4784 25.7119 37.4264 25.7119 38.0046C25.7119 38.2481 25.8641 38.5221 26.0163 38.6134C26.2598 38.7656 26.2293 38.9482 25.9858 39.2525C25.5597 39.77 26.0467 39.8308 26.5946 39.283C26.8989 39.009 27.0511 39.009 27.1424 39.283C27.2337 39.496 27.6598 39.2221 28.2077 38.6134C28.6947 38.0351 29.2425 37.609 29.3947 37.7003C29.7295 37.9133 31.1905 36.635 31.1905 36.148C31.1905 35.9045 31.3731 35.8132 31.647 35.9045C32.2557 36.148 33.0167 35.5089 33.0167 34.7479C33.0167 34.2914 33.1688 34.2001 33.5036 34.3218C33.7776 34.4436 34.2037 34.3523 34.4167 34.1697C34.9037 33.774 34.995 32.6783 34.5689 32.6783C34.4167 32.6783 34.2341 32.4956 34.1428 32.2522C33.9906 31.9174 34.1732 31.8869 35.0559 32.1608C35.9994 32.4652 36.1821 32.4348 36.6386 31.8869C36.9125 31.5521 37.3691 31.1869 37.6734 31.0651C37.9474 30.9738 38.1909 30.6999 38.1909 30.4868C38.1909 30.2738 38.4952 29.939 38.8909 29.7868C39.317 29.5738 39.5605 29.2085 39.5605 28.7215C39.5605 27.8693 40.8693 25.9214 41.2954 26.1649C41.4171 26.2562 41.5389 26.4692 41.5389 26.6214C41.5389 26.804 41.4171 26.8345 41.2345 26.7432C41.0823 26.6519 40.9301 26.7432 40.9301 27.0171C40.9301 27.2606 40.7475 27.5041 40.5649 27.5954C40.3518 27.6563 40.2605 27.8389 40.3823 27.9606C40.778 28.3563 41.8737 27.1388 41.7824 26.4084C41.7519 26.0736 41.8737 25.5257 42.1172 25.2822C42.3302 25.0083 42.452 24.5517 42.3302 24.3082C42.1172 23.73 41.2649 23.73 41.0519 24.3082C40.7475 25.0692 40.291 24.8257 40.504 24.0039C40.7475 22.969 40.1388 23.0299 38.83 24.1256ZM40.3518 24.8865C40.8084 25.3735 40.6562 25.8909 39.8649 26.8649C39.3474 27.4432 38.8909 27.7171 38.5865 27.5954C38.2213 27.4432 38.2822 27.3215 38.8909 26.9867C39.804 26.5301 40.2301 25.4648 39.7431 24.9778C39.4692 24.7039 39.2257 24.7344 38.7996 25.0083C38.4039 25.2518 38.1909 25.2518 38.1909 25.0692C38.1909 24.8865 38.5257 24.6126 38.9518 24.4604C39.3779 24.3082 39.7431 24.0039 39.7431 23.7908C39.7736 23.5778 39.8344 23.6691 39.9257 24.0039C40.017 24.3387 40.1997 24.7344 40.3518 24.8865ZM39.5605 25.404C39.7736 25.7388 38.8909 26.8953 38.4343 26.8953C38.3126 26.8953 38.1909 26.6823 38.1909 26.4388C38.1909 26.1953 38.4039 25.9823 38.6474 25.9823C38.9213 25.9823 39.0126 25.7996 38.9213 25.5257C38.7083 25.0083 39.2561 24.8865 39.5605 25.404ZM39.0431 28.752C39.1039 29.3911 39.0735 29.4216 38.7996 28.9346C38.617 28.6607 38.1909 28.4172 37.8865 28.4172C37.5821 28.4172 37.156 28.6607 37.0038 28.9346C36.7299 29.4216 36.6995 29.4216 36.669 28.965C36.6386 27.4736 38.8605 27.2606 39.0431 28.752ZM38.4343 29.3303C38.5257 29.5738 38.4648 29.6955 38.343 29.5738C38.0082 29.2694 37.3386 30.0303 37.4908 30.5477C37.5821 30.8521 37.4908 30.8216 37.2778 30.4564C37.0951 30.1825 37.0343 29.6346 37.1256 29.2998C37.3691 28.5998 38.2213 28.6302 38.4343 29.3303ZM36.8212 30.2434C37.0951 31.0956 36.456 32.0695 35.6646 32.0391C34.995 32.0391 34.995 32.0391 35.6342 31.7652C36.7603 31.3086 36.8212 30.2738 35.7559 29.8477C35.4516 29.7259 35.5124 29.6651 35.969 29.6651C36.3647 29.6346 36.6995 29.8781 36.8212 30.2434ZM33.808 31.6739C33.7471 32.1913 33.8993 32.6783 34.2037 32.8913C34.6602 33.2261 34.6602 33.287 34.1732 33.8044C33.6558 34.3218 33.6254 34.2914 33.6254 33.6827C33.6254 32.9522 32.8949 32.5565 32.4688 33.0739C31.9514 33.6827 31.9514 33.774 32.3471 34.261C32.8036 34.8088 32.5297 35.7219 31.8905 35.7219C31.647 35.7219 31.4948 35.5393 31.5861 35.3262C31.647 35.1436 31.8601 34.9914 32.0427 35.0219C32.2557 35.0827 32.3166 34.9001 32.1949 34.5958C32.0123 34.1697 31.9514 34.1697 31.5861 34.6871C31.3731 34.9914 31.1905 35.3567 31.1905 35.5089C31.1905 35.6306 31.0383 35.661 30.8252 35.5393C30.5817 35.3871 30.5513 35.4784 30.6731 35.8437C31.0687 36.8176 30.4904 37.0307 30.0948 36.0567C29.8817 35.5393 29.5469 35.1132 29.3643 35.1132C29.2121 35.1132 29.0599 34.961 29.0599 34.7784C29.0599 34.5653 29.3947 34.5349 29.9426 34.6566C30.6122 34.8088 31.0079 34.6871 31.4644 34.2305C31.9209 33.774 31.9514 33.5914 31.647 33.4696C31.4035 33.3783 31.3122 33.0739 31.4035 32.7087C31.5861 31.9782 31.8296 31.9174 32.3775 32.4348C32.7123 32.7696 32.7732 32.7391 32.6514 32.4043C32.5297 31.9782 33.2297 30.9434 33.6863 30.8825C33.808 30.8521 33.8384 31.2173 33.808 31.6739ZM28.4512 36.5437C28.4512 36.9394 26.412 38.4612 26.1989 38.2481C25.9554 37.9742 27.5381 36.3306 28.0555 36.3306C28.2686 36.3306 28.4512 36.422 28.4512 36.5437ZM28.7556 37.4568C28.7556 37.609 28.4208 38.0046 28.0251 38.4003C27.5077 38.8873 27.2033 38.9786 27.0511 38.7351C26.9294 38.5221 27.1424 38.1264 27.5685 37.822C28.3599 37.2133 28.7556 37.0916 28.7556 37.4568Z" fill="#E37619"/>
<path d="M24.3727 38.9177C24.0988 39.3134 23.8857 39.9221 23.8857 40.2569C23.8857 40.8656 23.3683 41.383 23.0639 41.0787C22.9726 40.9874 23.0639 40.7134 23.277 40.4395C23.8248 39.7699 23.2161 39.8612 22.4552 40.5613C22.0291 40.9569 21.816 41.5352 21.816 42.2353C21.816 43.3005 21.816 43.3005 22.5161 42.844C23.3987 42.2657 24.1901 41.1091 24.1901 40.3482C24.1901 39.4655 24.5553 39.3134 25.0119 39.983C25.2554 40.3178 25.6815 40.5917 25.9554 40.5917C26.3206 40.6221 26.1989 40.7743 25.651 41.0787C24.6771 41.5961 24.5553 42.2657 25.3771 42.6918C25.8337 42.9657 25.9858 42.9049 26.1076 42.4179C26.1989 42.0831 26.138 41.8092 25.9858 41.8092C25.8337 41.8092 25.7119 41.9613 25.7119 42.144C25.7119 42.2961 25.5597 42.357 25.4075 42.2657C25.0119 42.0222 25.5902 41.2004 26.1685 41.2004C26.3511 41.2004 26.7772 40.9569 27.0511 40.6221C27.5381 40.0743 27.5381 40.0743 26.7772 40.2265C25.8032 40.4091 24.7075 39.496 24.9814 38.7046C25.2249 37.9437 24.951 38.0046 24.3727 38.9177ZM23.1248 42.1135C22.8509 42.5701 22.4552 42.4788 22.2422 41.9309C21.9682 41.2004 22.3335 40.8352 22.8509 41.3526C23.1248 41.5961 23.2161 41.9309 23.1248 42.1135Z" fill="#E37619"/>
<path d="M22.2117 44.2443C22.1204 44.3964 22.2726 44.5486 22.577 44.5791C23.064 44.5791 23.064 44.6095 22.5161 44.853C21.9074 45.0965 21.9074 45.1269 22.5465 45.1269C22.8813 45.1573 23.277 45.066 23.3988 44.9443C23.5205 44.8225 23.9162 44.7008 24.251 44.7008C24.6162 44.7008 24.951 44.5182 25.0119 44.3051C25.1032 44.1225 25.0119 43.9399 24.7988 43.9399C24.6162 43.9399 24.5553 44.0616 24.6467 44.2443C24.738 44.3964 24.7075 44.5486 24.5249 44.5486C24.3727 44.5486 24.1597 44.366 24.0988 44.1529C23.9771 43.879 23.8553 43.879 23.6423 44.2138C23.3988 44.5791 23.2466 44.5791 22.8813 44.2747C22.577 44.0312 22.3639 44.0008 22.2117 44.2443Z" fill="#E37619"/>
<path d="M4.13249 18.1298C4.10205 18.4037 4.3151 18.8298 4.5586 19.1038C4.80209 19.3473 5.01514 19.7734 5.01514 20.0169C5.01514 20.2908 5.10645 20.5038 5.25863 20.5038C5.38038 20.5038 5.47169 20.9908 5.50213 21.5691C5.50213 22.1474 6.08042 23.7605 6.78046 25.1606C8.94144 29.513 13.446 33.1654 18.8942 34.9612C20.7812 35.6003 21.4813 35.996 21.7248 36.5134C21.9074 36.9091 22.2117 37.2439 22.3944 37.2439C22.6378 37.2439 22.577 37.0308 22.2726 36.696C21.9682 36.3917 21.7552 35.996 21.7552 35.8438C21.7552 35.6612 20.9638 35.296 20.0203 34.9916C17.281 34.1394 14.1765 32.5871 12.1373 31.0957C10.098 29.5739 7.60224 26.4694 7.29788 25.0693C7.17613 24.5823 6.96307 24.1562 6.84133 24.1562C6.68915 24.1562 6.62827 23.9127 6.71958 23.6084C6.87177 23.1518 6.84133 23.1518 6.53696 23.5475C6.26304 23.9127 6.2326 23.8214 6.35435 23.0909C6.50653 22.4822 6.47609 22.33 6.26304 22.604C6.04998 22.9083 5.92824 22.7866 5.77605 22.0561C5.65431 21.5083 5.65431 20.9908 5.74562 20.8995C5.83693 20.7778 5.92824 20.9604 5.92824 21.2648C5.92824 21.5691 6.01955 21.7213 6.14129 21.63C6.38478 21.3865 5.31951 18.982 4.95427 18.982C4.80209 18.982 4.5586 18.6777 4.40641 18.282C4.22379 17.795 4.13249 17.7646 4.13249 18.1298Z" fill="#E37619"/>
<path d="M8.36315 19.4993C8.60664 19.5906 9.76323 20.2297 10.8894 20.8993C12.0155 21.5689 13.0199 22.0255 13.1112 21.9342C13.3243 21.7211 8.88057 19.2862 8.33271 19.3167C7.99791 19.3167 8.02835 19.3775 8.36315 19.4993Z" fill="#E37619"/>
<path d="M7.45001 21.5082C7.45001 21.9039 9.70231 25.678 9.82405 25.5258C9.91536 25.4649 9.58056 24.7344 9.12402 23.9431C8.0283 22.056 7.45001 21.2343 7.45001 21.5082Z" fill="#E37619"/>
<path d="M9.61105 23.3951C10.3111 24.3386 10.9503 25.0082 11.0416 24.9473C11.1937 24.7647 8.91101 21.7515 8.57621 21.7211C8.45447 21.7211 8.91101 22.482 9.61105 23.3951Z" fill="#E37619"/>
<path d="M29.6686 43.2397C29.6686 43.3919 29.973 43.6658 30.3687 43.9093C30.7339 44.1528 31.3426 44.5485 31.7383 44.7919C33.0166 45.6137 32.4079 44.8833 31.0383 43.9397C30.2774 43.4223 29.6686 43.1179 29.6686 43.2397Z" fill="#E37619"/>
<path d="M30.7339 44.9747C31.2513 45.4008 31.7688 45.766 31.8905 45.766C32.0427 45.766 32.0427 45.9182 31.921 46.1313C31.7992 46.3443 31.8296 46.3747 32.0427 46.253C32.2558 46.1313 32.4079 46.1617 32.4079 46.3139C32.4079 46.6487 33.7776 47.2878 34.4776 47.2878C34.8733 47.2574 34.7515 47.0748 34.0819 46.5269C33.595 46.1008 32.9862 45.766 32.7732 45.766C32.5297 45.766 31.9818 45.5225 31.5557 45.2182C30.1861 44.2746 29.76 44.1529 30.7339 44.9747Z" fill="#E37619"/>
<path d="M12.3503 47.6225C12.259 48.1704 13.9026 51.214 14.6331 51.9141C15.5157 52.7358 18.3463 54.1664 18.5898 53.8924C18.6507 53.8316 18.1333 53.5272 17.4332 53.2533C15.7288 52.6141 13.9939 50.8792 13.0808 48.9617C12.6851 48.1095 12.3503 47.5312 12.3503 47.6225Z" fill="#E37619"/>
<path d="M54.7787 54.4708C55.5701 55.0491 56.2701 55.4752 56.3614 55.3839C56.544 55.2317 54.0483 53.3751 53.6526 53.3751C53.5004 53.3751 54.0178 53.8621 54.7787 54.4708Z" fill="#E37619"/>
<path d="M7.51091 58.3971C6.62826 59.4928 5.95866 60.3755 6.01953 60.3755C6.11084 60.3755 6.93262 59.4928 7.90659 58.3971C8.85012 57.3014 9.51972 56.4188 9.36754 56.4188C9.24579 56.4188 8.39357 57.3014 7.51091 58.3971Z" fill="#E37619"/>
<path d="M60.0615 23V13.9H62.1675V23H60.0615ZM68.1492 21.232L68.6952 22.662C68.2792 22.961 67.6682 23.104 67.0442 23.104C65.3932 23.104 64.4312 22.259 64.4312 20.595V17.722H63.3522V16.162H64.4312V14.459H66.4592V16.162H68.2012V17.722H66.4592V20.569C66.4592 21.167 66.7842 21.492 67.3302 21.492C67.6292 21.492 67.9282 21.401 68.1492 21.232ZM72.1866 23.104C71.0036 23.104 69.8076 22.779 69.1576 22.35L69.8336 20.894C70.4576 21.297 71.4066 21.57 72.2646 21.57C73.2006 21.57 73.5516 21.323 73.5516 20.933C73.5516 19.789 69.3266 20.959 69.3266 18.164C69.3266 16.838 70.5226 15.902 72.5636 15.902C73.5256 15.902 74.5916 16.123 75.2546 16.513L74.5786 17.956C73.8896 17.566 73.2006 17.436 72.5636 17.436C71.6536 17.436 71.2636 17.722 71.2636 18.086C71.2636 19.282 75.4886 18.125 75.4886 20.881C75.4886 22.181 74.2796 23.104 72.1866 23.104ZM83.5908 19.529C83.5908 19.685 83.5648 19.906 83.5518 20.075H78.2608C78.4558 20.946 79.1968 21.479 80.2628 21.479C81.0038 21.479 81.5368 21.258 82.0178 20.803L83.0968 21.973C82.4468 22.714 81.4718 23.104 80.2108 23.104C77.7928 23.104 76.2198 21.583 76.2198 19.503C76.2198 17.41 77.8188 15.902 79.9508 15.902C82.0048 15.902 83.5908 17.28 83.5908 19.529ZM79.9638 17.436C79.0408 17.436 78.3778 17.995 78.2348 18.892H81.6798C81.5368 18.008 80.8738 17.436 79.9638 17.436ZM90.154 23L87.944 20.257L86.969 21.219V23H84.941V13.354H86.969V18.814L89.933 16.006H92.351L89.439 18.97L92.611 23H90.154ZM94.4863 15.031C93.7323 15.031 93.2253 14.537 93.2253 13.9C93.2253 13.263 93.7323 12.769 94.4863 12.769C95.2403 12.769 95.7473 13.237 95.7473 13.861C95.7473 14.537 95.2403 15.031 94.4863 15.031ZM93.4723 23V16.006H95.5003V23H93.4723ZM99.3194 16.929C99.8134 16.253 100.645 15.902 101.724 15.902V17.774C101.555 17.761 101.425 17.748 101.269 17.748C100.151 17.748 99.4104 18.359 99.4104 19.698V23H97.3824V16.006H99.3194V16.929ZM103.944 15.031C103.19 15.031 102.683 14.537 102.683 13.9C102.683 13.263 103.19 12.769 103.944 12.769C104.698 12.769 105.205 13.237 105.205 13.861C105.205 14.537 104.698 15.031 103.944 15.031ZM102.93 23V16.006H104.958V23H102.93ZM66.8605 39L66.0545 37.05H61.8295L61.0235 39H58.8655L62.9215 29.9H65.0015L69.0705 39H66.8605ZM62.5055 35.451H65.3915L63.9485 31.967L62.5055 35.451ZM72.1612 39.104C70.9782 39.104 69.7822 38.779 69.1322 38.35L69.8082 36.894C70.4322 37.297 71.3812 37.57 72.2392 37.57C73.1752 37.57 73.5262 37.323 73.5262 36.933C73.5262 35.789 69.3012 36.959 69.3012 34.164C69.3012 32.838 70.4972 31.902 72.5382 31.902C73.5002 31.902 74.5662 32.123 75.2292 32.513L74.5532 33.956C73.8642 33.566 73.1752 33.436 72.5382 33.436C71.6282 33.436 71.2382 33.722 71.2382 34.086C71.2382 35.282 75.4632 34.125 75.4632 36.881C75.4632 38.181 74.2542 39.104 72.1612 39.104ZM79.0674 39.104C77.8844 39.104 76.6884 38.779 76.0384 38.35L76.7144 36.894C77.3384 37.297 78.2874 37.57 79.1454 37.57C80.0814 37.57 80.4324 37.323 80.4324 36.933C80.4324 35.789 76.2074 36.959 76.2074 34.164C76.2074 32.838 77.4034 31.902 79.4444 31.902C80.4064 31.902 81.4724 32.123 82.1354 32.513L81.4594 33.956C80.7704 33.566 80.0814 33.436 79.4444 33.436C78.5344 33.436 78.1444 33.722 78.1444 34.086C78.1444 35.282 82.3694 34.125 82.3694 36.881C82.3694 38.181 81.1604 39.104 79.0674 39.104ZM86.9487 39.104C84.7257 39.104 83.1007 37.609 83.1007 35.503C83.1007 33.397 84.7257 31.902 86.9487 31.902C89.1717 31.902 90.7837 33.397 90.7837 35.503C90.7837 37.609 89.1717 39.104 86.9487 39.104ZM86.9487 37.44C87.9627 37.44 88.7297 36.712 88.7297 35.503C88.7297 34.294 87.9627 33.566 86.9487 33.566C85.9347 33.566 85.1547 34.294 85.1547 35.503C85.1547 36.712 85.9347 37.44 86.9487 37.44ZM95.5192 39.104C93.2442 39.104 91.6192 37.609 91.6192 35.503C91.6192 33.397 93.2442 31.902 95.5192 31.902C96.9882 31.902 98.1452 32.539 98.6522 33.683L97.0792 34.528C96.7022 33.865 96.1432 33.566 95.5062 33.566C94.4792 33.566 93.6732 34.281 93.6732 35.503C93.6732 36.725 94.4792 37.44 95.5062 37.44C96.1432 37.44 96.7022 37.154 97.0792 36.478L98.6522 37.336C98.1452 38.454 96.9882 39.104 95.5192 39.104ZM100.834 31.031C100.08 31.031 99.5729 30.537 99.5729 29.9C99.5729 29.263 100.08 28.769 100.834 28.769C101.588 28.769 102.095 29.237 102.095 29.861C102.095 30.537 101.588 31.031 100.834 31.031ZM99.8199 39V32.006H101.848V39H99.8199ZM106.551 31.902C108.683 31.902 109.918 32.89 109.918 35.009V39H108.02V38.129C107.643 38.766 106.915 39.104 105.888 39.104C104.25 39.104 103.275 38.194 103.275 36.985C103.275 35.75 104.146 34.892 106.278 34.892H107.89C107.89 34.021 107.37 33.514 106.278 33.514C105.537 33.514 104.77 33.761 104.263 34.164L103.535 32.747C104.302 32.201 105.433 31.902 106.551 31.902ZM106.395 37.739C107.071 37.739 107.656 37.427 107.89 36.79V36.075H106.499C105.55 36.075 105.251 36.426 105.251 36.894C105.251 37.401 105.68 37.739 106.395 37.739ZM115.719 37.232L116.265 38.662C115.849 38.961 115.238 39.104 114.614 39.104C112.963 39.104 112.001 38.259 112.001 36.595V33.722H110.922V32.162H112.001V30.459H114.029V32.162H115.771V33.722H114.029V36.569C114.029 37.167 114.354 37.492 114.9 37.492C115.199 37.492 115.498 37.401 115.719 37.232ZM118.417 31.031C117.663 31.031 117.156 30.537 117.156 29.9C117.156 29.263 117.663 28.769 118.417 28.769C119.171 28.769 119.678 29.237 119.678 29.861C119.678 30.537 119.171 31.031 118.417 31.031ZM117.403 39V32.006H119.431V39H117.403ZM124.641 39.104C122.418 39.104 120.793 37.609 120.793 35.503C120.793 33.397 122.418 31.902 124.641 31.902C126.864 31.902 128.476 33.397 128.476 35.503C128.476 37.609 126.864 39.104 124.641 39.104ZM124.641 37.44C125.655 37.44 126.422 36.712 126.422 35.503C126.422 34.294 125.655 33.566 124.641 33.566C123.627 33.566 122.847 34.294 122.847 35.503C122.847 36.712 123.627 37.44 124.641 37.44ZM134.083 31.902C135.734 31.902 136.982 32.864 136.982 34.996V39H134.954V35.308C134.954 34.177 134.434 33.657 133.537 33.657C132.562 33.657 131.86 34.255 131.86 35.542V39H129.832V32.006H131.769V32.825C132.315 32.227 133.134 31.902 134.083 31.902ZM145.83 39.104C143.607 39.104 141.982 37.609 141.982 35.503C141.982 33.397 143.607 31.902 145.83 31.902C148.053 31.902 149.665 33.397 149.665 35.503C149.665 37.609 148.053 39.104 145.83 39.104ZM145.83 37.44C146.844 37.44 147.611 36.712 147.611 35.503C147.611 34.294 146.844 33.566 145.83 33.566C144.816 33.566 144.036 34.294 144.036 35.503C144.036 36.712 144.816 37.44 145.83 37.44ZM153.243 31.863V32.162H155.037V33.722H153.295V39H151.267V33.722H150.188V32.162H151.267V31.85C151.267 30.277 152.229 29.25 153.971 29.25C154.543 29.25 155.141 29.367 155.518 29.627L154.985 31.096C154.764 30.94 154.478 30.849 154.166 30.849C153.568 30.849 153.243 31.174 153.243 31.863ZM64.4165 55.156C61.5955 55.156 59.4895 53.193 59.4895 50.45C59.4895 47.707 61.5955 45.744 64.4295 45.744C66.0025 45.744 67.3155 46.316 68.1735 47.356L66.8215 48.604C66.2105 47.902 65.4435 47.538 64.5335 47.538C62.8305 47.538 61.6215 48.734 61.6215 50.45C61.6215 52.166 62.8305 53.362 64.5335 53.362C65.4435 53.362 66.2105 52.998 66.8215 52.283L68.1735 53.531C67.3155 54.584 66.0025 55.156 64.4165 55.156ZM73.7037 47.902C75.3547 47.902 76.6027 48.864 76.6027 50.996V55H74.5747V51.308C74.5747 50.177 74.0547 49.657 73.1577 49.657C72.1827 49.657 71.4807 50.255 71.4807 51.542V55H69.4527V45.354H71.4807V48.734C72.0267 48.188 72.8067 47.902 73.7037 47.902ZM79.455 47.031C78.701 47.031 78.194 46.537 78.194 45.9C78.194 45.263 78.701 44.769 79.455 44.769C80.209 44.769 80.716 45.237 80.716 45.861C80.716 46.537 80.209 47.031 79.455 47.031ZM78.441 55V48.006H80.469V55H78.441ZM85.7312 55.104C83.4562 55.104 81.8312 53.609 81.8312 51.503C81.8312 49.397 83.4562 47.902 85.7312 47.902C87.2002 47.902 88.3572 48.539 88.8642 49.683L87.2912 50.528C86.9142 49.865 86.3552 49.566 85.7182 49.566C84.6912 49.566 83.8852 50.281 83.8852 51.503C83.8852 52.725 84.6912 53.44 85.7182 53.44C86.3552 53.44 86.9142 53.154 87.2912 52.478L88.8642 53.336C88.3572 54.454 87.2002 55.104 85.7312 55.104ZM92.8528 47.902C94.9848 47.902 96.2198 48.89 96.2198 51.009V55H94.3218V54.129C93.9448 54.766 93.2168 55.104 92.1898 55.104C90.5518 55.104 89.5768 54.194 89.5768 52.985C89.5768 51.75 90.4478 50.892 92.5798 50.892H94.1918C94.1918 50.021 93.6718 49.514 92.5798 49.514C91.8388 49.514 91.0718 49.761 90.5648 50.164L89.8368 48.747C90.6038 48.201 91.7348 47.902 92.8528 47.902ZM92.6968 53.739C93.3728 53.739 93.9578 53.427 94.1918 52.79V52.075H92.8008C91.8518 52.075 91.5528 52.426 91.5528 52.894C91.5528 53.401 91.9818 53.739 92.6968 53.739ZM103.422 48.006H105.346V53.83C105.346 56.43 103.942 57.626 101.42 57.626C100.094 57.626 98.8074 57.301 97.9884 56.664L98.7944 55.208C99.3924 55.689 100.367 56.001 101.264 56.001C102.694 56.001 103.318 55.351 103.318 54.09V53.791C102.785 54.376 102.018 54.662 101.108 54.662C99.1714 54.662 97.6114 53.323 97.6114 51.282C97.6114 49.241 99.1714 47.902 101.108 47.902C102.083 47.902 102.889 48.227 103.422 48.903V48.006ZM101.511 52.998C102.577 52.998 103.344 52.309 103.344 51.282C103.344 50.255 102.577 49.566 101.511 49.566C100.445 49.566 99.6654 50.255 99.6654 51.282C99.6654 52.309 100.445 52.998 101.511 52.998ZM110.562 55.104C108.339 55.104 106.714 53.609 106.714 51.503C106.714 49.397 108.339 47.902 110.562 47.902C112.785 47.902 114.397 49.397 114.397 51.503C114.397 53.609 112.785 55.104 110.562 55.104ZM110.562 53.44C111.576 53.44 112.343 52.712 112.343 51.503C112.343 50.294 111.576 49.566 110.562 49.566C109.548 49.566 108.768 50.294 108.768 51.503C108.768 52.712 109.548 53.44 110.562 53.44Z" fill="#E37619"/>
</svg>
